<svg version="1.0" xmlns="http://www.w3.org/2000/svg" viewBox="0 0 944 1048"><g fill="#FF0" stroke-width="0"><path d="M471.5 30.2c7.7 5.9 15.6 13.1 18.5 16.8 13.8 17.4 6.1 44.8-17.2 61.5l-4.9 3.5.3-31 .3-31-4.3-.6c-11-1.7-22.4 2.7-27.4 10.5-2.4 3.9-2.8 5.5-2.8 11.8 0 4 .4 7.3.8 7.3.5 0 1.9-1.2 3.3-2.6 1.3-1.5 4.3-3.5 6.6-4.6 3.9-1.7 4.5-1.7 7.8-.4 4.2 1.8 6.9 7 5.9 11.4-2.2 9.1-7.2 14.9-36 42.2-23.8 22.5-32 49.8-22 72.4 5.4 12.1 18.8 25.4 33.7 33.4l6.9 3.7V247h4.4c6.9 0 7.6.5 7.6 6.1v4.9h-15.9l-13.7 19.2c-7.6 10.6-14.9 20.8-16.2 22.5l-2.4 3.3h34.3l34.4-.1 16-22.6 16-22.5 6 .6c3.3.3 14 .3 23.9 0l17.8-.7-.4-5.4-.5-5.3h8.7v-5.9c0-5.8 0-5.8 3.3-6.4 1.7-.3 4.4-1 6-1.6l2.7-1.1v-58.4c0-55.3-.1-58.6-1.8-60.3-1-1-4-4.6-6.6-8.1-2.7-3.5-5-6.2-5.2-6-.2.3.1 3.3.7 6.9 1.6 10 1.4 25.9-.6 33.9s-7.5 17.4-12.6 21.3c-3.1 2.3-8.3 5.4-23.2 14l-4.7 2.8.2-68 .3-68-2.5-1.2c-13.1-6.1-30.4-11.2-42.5-12.4l-6-.6 3 2.3zm21.4 218.5c.3.2.5 2.4.6 4.8l.1 4.5H479v-4.5c0-3.8-.3-4.5-1.9-4.5-1.1 0-2.3-.5-2.7-1.1-.4-.8 2.1-.9 8.7-.4 5.2.4 9.6.9 9.8 1.2zm37.6-.7c.3.5.1 1-.4 1-.6 0-1.1 2-1.1 4.5v4.5h-15v-9.9l3.8-.4c7.6-.8 12.1-.7 12.7.3zm-235.4 11.3c-1.9.7-4.4 2.5-5.5 4-1.9 2.6-2.1 4.2-2.1 17.8V296l3.3 3.2 3.2 3.3h46.4l15.3-21.5c8.4-11.8 15.3-21.8 15.3-22.3 0-1.3-72.1-.7-75.9.6zM554.6 280c-8.6 12.1-15.6 22.3-15.6 22.5 0 .3 15.3.5 33.9.5h34l15.3-21.7c8.4-11.9 15.5-22.1 15.6-22.5.2-.4-14.9-.8-33.6-.8h-34l-15.6 22zm74.2 73.1-8.8 16.6v173.1c0 172.9 0 173.2-2 173.2-1.1 0-12-1.8-24.1-4-12.2-2.2-22.3-4-22.5-4-.2 0-.4 9.7-.4 21.5V751l2.3-.5c12.5-2.8 44.2-8.5 47.5-8.5h4.2v15h19.5l-11 6.5c-6 3.6-12.2 7-13.7 7.7-2.7 1.2-2.8 1.7-2.8 8v6.7l6.3-3.8c3.4-2.1 12.4-7.3 20-11.7 7.5-4.3 13.7-8.4 13.7-9.1 0-.7-1.3-1.9-3-2.8-2.9-1.5-3-1.7-3-9V742h3.9c3.1 0 35.7 5.8 47.9 8.5l2.2.5v-21.5c0-11.8-.2-21.5-.5-21.5s-10.5 1.8-22.7 4c-12.1 2.2-23.3 3.9-24.7 3.8-1.4-.1-5.9 1.3-9.9 3.1-4.1 1.8-7.5 3.1-7.7 2.9-.2-.2-.7-86.9-1.2-192.8l-.8-192.5-8.7 16.6z"/><path d="M154.3 557c-1.1 5.4-3.9 13.6-6.1 18.4-4 8.5-11.8 20.6-13.2 20.6-.5 0-2.1-2.1-3.6-4.7-3.6-6.2-14.6-16.9-21.8-21.2-5.7-3.4-15.3-7.3-21.5-8.6l-3.3-.7 2.9 4.3c4.6 6.6 8.9 15.6 11.4 23.9 1.9 6 2.3 9.8 2.3 19 0 10.5-.4 13.1-4.6 29.5-6.9 26.4-9 37.7-9.1 49-.2 8.8.1 10.6 2.3 14.9 4.2 8.3 14 11.4 15.6 5 .4-1.4.2-10.5-.5-20.2-1.1-18-.4-31.9 1.9-36.2.8-1.5 2.1-2 5.4-2 3.6 0 4.9.5 6.9 2.9 2.3 2.8 2.4 3.7 3 21.7 1.7 53 14.4 104.2 37.7 151.9 73.3 150.6 237.9 234.3 402.6 204.5 117.2-21.2 217.8-98.1 269.8-206.2 23.2-48.2 35-96.4 37.2-152.3.7-19 1.3-20.8 7-22.4 4.2-1.1 7.8-.1 8.8 2.6 2 5 2.5 18.7 1.5 35.5-.7 9.7-.9 18.8-.5 20.2 1.6 6.4 11.5 3.3 15.6-4.9 2.1-4.3 2.5-6.2 2.4-14.5-.2-11.8-1.1-16.9-8.2-45-5.2-20.8-5.6-23.4-5.6-34 0-9.3.4-13 2.3-19 2.5-8.3 6.8-17.3 11.4-23.9l2.9-4.3-3.3.7c-6.4 1.4-18.4 6.5-23.9 10.2-6.8 4.6-14.7 12.5-19 19.2-1.9 2.8-3.6 5.1-4 5.1-1.4 0-9.3-12.3-13.1-20.5-2.2-4.7-5-13.1-6.3-18.5l-2.2-10-3.6 4.8c-12.6 16.6-19.8 37.7-20 58.7-.1 5.5.2 11.5.6 13.2.7 3 .6 3.3-1.7 3.3-1.4 0-3.9 1.1-5.5 2.5l-2.9 2.4-.6 26.3c-.8 36.5-4 59.4-12.1 87.5-5.4 18.8-9.9 30.2-20.1 50.8-59.6 120.8-190.6 188.3-323.1 166.4-113.1-18.6-206.5-99.3-241.8-208.8-10-31-13.6-54.3-14.3-93.1l-.6-28.4-2.8-2.8c-1.6-1.7-3.8-2.8-5.4-2.8-2.5 0-2.6-.2-1.9-3.3 2.4-10.6-.6-34.2-6.2-48.4-3-7.6-10.1-20.1-14.2-25l-2.7-3.1-2.2 9.8zM796 777.4c0 5.3-2.3 10.7-3.3 7.6-1.5-4.6-1.6-8.4-.1-11.1 2.1-4.1 3.4-2.8 3.4 3.5zm-608.1 5.3c3.6 7.3 3.6 7.6-2.4 17.9-3.1 5.3-5.4 9.8-5.2 10 .2.3 4.6 0 9.8-.4 5.2-.5 10.1-.5 11-.1 2.1 1 5.9 7.4 5.9 9.7-.1 1.5-4.8 5.5-18.1 15.5l-3.7 2.7-2.1-3.3c-1.2-1.9-2.1-3.7-2.1-4 0-.2 3.9-3.3 8.6-6.7 4.7-3.4 8.3-6.4 8-6.7-.2-.3-4.4 0-9.3.6-13.2 1.6-14 1.5-15.8-1.9-.8-1.6-1.5-3.6-1.5-4.4 0-.9 2.9-6.3 6.4-12.1 3.6-5.8 6.3-10.5 6-10.5-.2 0-4.4 2.5-9.4 5.6-4.9 3-9.3 5.3-9.8 5-1.8-1.1-3.5-6.7-2.4-7.8 2.1-2.1 20.7-12.7 22.4-12.7 1.1-.1 2.5 1.4 3.7 3.6zm623.2 5.9c11.6 6.9 12.5 8.2 9 12.5l-1.8 2.3-11.7-7.3c-10.3-6.4-11.6-7.5-11-9.4.8-2.7 2.3-4.7 3.6-4.7.6 0 5.9 3 11.9 6.6zm-5.3 18.3c5.1.5 9.6 1.1 10 1.5.4.4-.3 2.4-1.5 4.4-1.8 3.2-2.6 3.7-5.7 3.7-3.3 0-3.8.4-7.5 6.8-4 6.7-4 6.8-2.5 10.1 1.5 3 1.5 3.6 0 6.4-.9 1.8-2.1 3.2-2.6 3.2-.9 0-15-27.6-15-29.3 0-.4 1.2-2.6 2.6-4.8l2.6-4.1 5.1.6c2.9.4 9.4 1 14.5 1.5zM217 833.8c0 1.1-20.5 18.2-21.8 18.2-1.1 0-4.2-4.4-4.2-5.8 0-.5 4.8-4.9 10.7-9.7l10.7-8.7 2.3 2.7c1.3 1.4 2.3 2.9 2.3 3.3zm561.4 2.5c1.3 1.6 1.7 3.2 1.3 5.9-.5 3.4-.3 3.6 1.7 2.9 2.9-1 12.6-.1 12.6 1.2 0 .5-1.1 2.4-2.4 4.2-2.3 3-2.7 3.1-8.4 2.7-5.2-.4-6.2-.1-8.1 1.9l-2.2 2.4 4.2 3.7 4.3 3.7-2 2.8c-1.1 1.4-2.5 2.8-3 3-.5.2-5.4-3.9-10.9-9.1l-10-9.4 1.8-3.4c2.5-4.7 10.5-13.8 13.1-14.8 2.8-1.1 5.7-.3 8 2.3zm-552.2 10.3 2.9 4-2.6 11.7c-1.4 6.4-2.5 11.9-2.5 12.2 0 .3 2.8-2.4 6.1-6 3.4-3.6 6.7-6.5 7.4-6.5.7 0 2 1.1 2.9 2.5 1.7 2.6 1.6 2.7-3.3 8.3-2.7 3.1-7.2 7.9-9.9 10.5l-4.9 4.9-3.2-3.4c-3.8-4.1-3.9-6-.3-20.5 3.2-12.8 3.7-12.6-7.1-2.3l-5.8 5.5-2.5-2.8c-1.3-1.5-2.4-3.2-2.4-3.7 0-1.2 20.3-19 21.4-18.7.5.2 2.2 2.1 3.8 4.3zM760.5 869l9.9 10-2 2.7c-1.1 1.5-2.5 2.8-3 3-.5.2-5.3-4.4-10.7-10.1l-9.7-10.4 2.1-2.6c1.1-1.4 2.4-2.6 2.7-2.6.4 0 5.2 4.5 10.7 10zm-12 16.1 4.8 14-3.4 3.5c-1.8 1.9-3.9 3.4-4.6 3.4-2 0-26.3-12.4-26.3-13.4 0-1.4 3.1-4.6 4.5-4.6.7 0 5.6 2.1 11 4.6 5.3 2.5 9.9 4.3 10.2 4 .3-.2-1.4-5.4-3.7-11.5-4.1-11-4.2-11.9-1.1-15.4 1.4-1.6 1.6-1.7 2.7-.3.6.9 3.3 7.9 5.9 15.7zM252 878.2c0 1.2-18 21.8-19.1 21.8-.4 0-1.7-1.2-2.8-2.6-2.5-3.1-3.1-2.1 8.8-15.2l8.4-9.3 2.4 2.2c1.2 1.3 2.3 2.6 2.3 3.1zm15.6 14.2c4.5 4.5 5.5 7.5 3 9.5-1.1.9-1.8.5-3.6-2.4-3.4-5.6-8-7-8-2.5 0 1 1.1 4.2 2.5 7.2 3.1 6.6 3.2 10.5.3 13.5-4.9 5.2-14.9 1.2-19.8-8-2-3.8-2.2-4.8-1.1-6.1 1.9-2.3 3-2 4.2 1.1 1.2 3.3 5.8 8.3 7.5 8.3.6 0 1.7-.7 2.4-1.5 1-1.2.7-2.7-1.5-8.2-3.9-9.8-1.9-15.3 5.8-15.3 3.3 0 4.6.7 8.3 4.4zm456.9 14.2c6.9 3.6 12.7 6.9 13 7.3.2.5-.9 2-2.4 3.5-2.8 2.7-3 2.7-6 1.1l-3.2-1.6-5.2 4.7c-4.9 4.4-5.2 4.9-4.9 8.9.3 3.6 0 4.4-2.3 5.9-3 2-4.5 1-4.5-2.9 0-1.2-1.1-7.9-2.5-15l-2.5-13 3-2.8c1.7-1.5 3.5-2.7 4-2.7s6.6 3 13.5 6.6zm-441.6.1c3.7 3.2 8.5 7.2 10.7 9 3.7 2.9 3.8 3.2 2.2 4.9-1.6 1.6-1.9 1.6-5.3-1-1.9-1.5-3.9-2.5-4.3-2.2-.5.3-3.7 4.8-7.2 10-6.5 10-7.4 10.5-11 6.1-1.1-1.4-.4-3 5.5-11.7l6.9-10.1-3.7-3.4c-2-1.8-3.7-3.7-3.7-4.1 0-.8 2.1-3.2 2.8-3.2.1 0 3.4 2.6 7.1 5.7zm416.2 21.6c3.8 6 6.9 11.7 6.9 12.7s-1.6 2.8-3.6 4.1l-3.7 2.2-11.4-5.7-11.4-5.6 2.5 4.5c1.5 2.5 3.7 6.5 5.1 8.9 3.2 5.7 3.1 7.2-.5 9.1l-3 1.5-6.5-13.1c-6.2-12.3-6.5-13.2-5-14.9.9-1 2.9-2.3 4.4-2.9 2.4-1 3.8-.6 12.1 3.3 5.2 2.5 9.6 4.3 9.8 4.2.2-.2-1.7-3.7-4.3-7.9-2.5-4.1-4.5-7.8-4.5-8.2 0-1.3 3.4-3.5 4.9-3.2.7.1 4.4 5.1 8.2 11zm-389.1-1c4.1 2.8 7.7 5.1 7.8 5.3.7.5-1 4.4-1.9 4.4-.5 0-3.4-1.7-6.5-3.7-5.4-3.6-5.7-3.7-7-1.8-2.2 2.9-1.7 3.8 3.6 7.3 4.4 2.8 4.9 3.5 4 5.2-1.4 2.6-1.7 2.5-7-1-2.5-1.6-4.7-3-5-3-.6 0-4 5.4-4 6.4 0 .3 2.7 2.4 6 4.6 6 4.1 7 5.6 4.8 7.8-.8.8-3.3-.4-10-5-4.8-3.3-9.1-6.4-9.4-6.9-.4-.8 10.7-20.5 13.9-24.6 1.1-1.4.7-1.6 10.7 5zm21 13.3c7.3 4.4 10 7.6 10 11.8 0 4.2-2.3 7.3-6 8.1-1.7.4-2.8 1.1-2.4 1.6.8 1.4 2.4 13.1 1.8 14-.3.5-2 .1-3.9-.8-3.1-1.5-3.4-2.1-4-7.2-.9-7.7-1.3-8.9-3.5-10.1-1.7-.9-2.3-.4-4.5 4l-2.5 5-3-1.5c-1.7-.9-3-2-3-2.5 0-2.1 12.5-26 13.7-26 .6 0 3.9 1.6 7.3 3.6zm23.5 12.8c1.9 1.3 1.8 1.8-3.1 14.7-3.1 8-5.7 13.5-6.6 13.7-.8.2-2.4-.5-3.6-1.5l-2.1-1.8 4.4-11c6.2-15.4 6.3-15.5 7.8-15.5.7 0 2.2.6 3.2 1.4zm273.9 18.5c2.5 6.9 4.6 12.7 4.6 13.1 0 .7-4.5 3-5.9 3-.5 0-2.6-5-4.7-11.1l-3.9-11.2-1.2 13.4c-.6 7.4-1.2 13.5-1.2 13.6-.1.1-6.3 2.3-6.6 2.3-.2 0-3.6-4.3-7.6-9.5-4-5.2-7.5-9.3-7.6-9.1-.2.2.9 5.1 2.4 10.9 1.5 5.8 2.5 10.8 2.2 11.1-.3.3-1.9.9-3.6 1.2l-3 .6-3.2-12.6c-4-16-4-17.1 0-18.5 6-2.1 7.1-1.5 14.1 6.9 3.7 4.4 6.9 7.7 7.1 7.3.3-.5.8-4.9 1.2-9.8.3-5 .9-9.8 1.2-10.8.7-2.7 8.4-6 10-4.4.6.7 3.2 6.8 5.7 13.6zm30.6-11.3c0 .8-2.7 2.7-6 4.4-5.9 3-5.9 3-7 .9-1.4-2.5-1.7-2.2 5-5.8 5.5-3 8-2.8 8 .5zm-277.5 3.2c5.8 3.1 8.5 7.6 8.5 13.7 0 4.9-2.8 11.2-6.5 14.5-5.2 4.8-17.9 2.6-24.4-4.4-3.7-4-4-11.2-.8-17.8 1.5-2.9 3.9-6.1 5.4-7 4.3-2.7 11.8-2.3 17.8 1zm199 10.2c.8 2.6.1 3.6-3.2 4.4-10.2 2.5-10 2.4-9.5 5.7.4 2.9.7 3.1 3.6 2.4 9.4-2 9.6-1.9 9.6.8 0 2.3-.6 2.7-5.6 3.8l-5.6 1.3.6 4c.4 2.2.8 4.1 1 4.3.1.1 3.2-.6 6.9-1.6 5.6-1.5 6.9-1.6 7.8-.5 2.1 2.6 0 4.1-8.5 6.3-9.8 2.4-12.2 2.6-12.9.8-1-2.8-5-27.7-4.5-28.3.5-.4 16.3-4.9 19-5.3.4-.1.9.8 1.3 1.9zm-160.3 1.9c3.7 1 7.9 2.6 9.3 3.5 8.2 5.4 8.7 19.3.9 25.5-2.6 2.1-3.7 2.3-10.9 1.8-10.6-.7-15.5-2.2-15.5-4.8 0-1.8 4.5-23.5 5.5-26.7.6-1.7 2.9-1.5 10.7.7zm123.7 6.3c.5 1.3 1.4 7 2.1 12.7l1.3 10.3 6.2-.7c5.4-.5 6.3-.4 6.9 1.1.4 1 .3 2.1-.1 2.5-1.4 1.4-17.7 3.8-18.9 2.8-.6-.5-1.6-6.2-2.3-12.6-.7-6.5-1.5-12.8-1.8-14-.4-1.7.1-2.5 1.8-3.2 3.5-1.4 3.9-1.3 4.8 1.1zm-82.7.5c2.2.4 2.8 1 2.6 2.7-.3 1.9-.8 2.1-7.5 1.8l-7.3-.3v3c0 3.3.9 3.8 8 4.3 3 .3 3.5.7 3.5 2.8 0 2.4-.2 2.5-6.1 2.2l-6.1-.4-.7 3.7c-.4 2-.6 3.9-.3 4.1.2.2 2.6.6 5.3 1 8.3.9 9.4 1.3 9.4 3.4 0 1-.4 2.1-1 2.5-1.4.9-19.3-1.6-20.7-2.9-.8-.8-.6-4.4.8-14.6 1-7.4 1.8-13.9 1.9-14.4 0-.8 12.1-.1 18.2 1.1zm70.8 1.7c0 2.7-2.1 3.6-8.6 3.6-5 0-5.2.2-4.6 4.1l.5 3.1 5.8-.7c5.8-.7 5.9-.7 5.9 1.8 0 2.9-1.6 3.7-7.6 3.7-4.7 0-4.9.3-3.8 5.9l.6 3.1 7.4-.7 7.4-.6v2.6c0 2.4-.3 2.6-6.7 3.2-3.8.3-8.4.8-10.4 1.1-2.3.3-3.9 0-4.6-.8-1.6-2-2.4-28.5-.9-29.7.6-.5 3.9-1.2 7.1-1.4 13.5-.8 12.5-.9 12.5 1.7zm-32.5 1c1.9.8 4 2.7 4.7 4.1 1 2.1.8 3-.9 5.3l-2 2.7 2.9 2.3c4.9 4.1 3.3 11.5-3 14.1-1.6.7-6.5 1.1-11.8.9l-8.9-.3.4-14.5c.2-8 .5-14.8.8-15.3.8-1.3 14.2-.7 17.8.7z"/><path d="M788.2 813.8c.2.4 1.6 3.1 3.2 6l2.9 5.2 2.8-4.7 2.8-4.8-2.2-.6c-4.4-1.2-9.8-1.8-9.5-1.1zm-21.5 31c-3.4 3.5-3.4 4.3.2 7l2.9 2.1 1.6-2.4c2.7-4.2 1.7-9.5-1.8-9.5-.1 0-1.4 1.3-2.9 2.8zM711 908.5c0 1.6 2.3 10.1 3 10.8.4.4 2.2-.4 3.9-1.9 2.6-2.2 3-2.9 1.9-3.9-2.1-1.9-8.8-5.7-8.8-5zm-386.3 40L323 952l3.5 1.7c2.8 1.3 3.7 1.4 5 .3 2.3-1.9 1.8-5.5-1-7.4-3.4-2.2-3.9-2.1-5.8 1.9zm46.8 18.5c-3.1 1.2-5.3 4.1-6.6 9.1-1.7 6.2-.6 9.6 3.6 11.6 5 2.4 8.4 1 11.3-4.7 2.6-5.1 2.8-9.7.7-12.7-1.8-2.6-6.4-4.3-9-3.3zm42.1 23.6c-1 5.2-1.6 9.7-1.3 10 .3.3 2.9.7 5.7.7 4.3.2 5.5-.2 7.1-2.1 4.5-5.7 3.1-14.4-2.7-16.8-6.5-2.7-6.9-2.4-8.8 8.2zM488 993c0 2.8.2 3 4 3 2.8 0 4.2-.5 4.9-1.8 1.4-2.7-.5-4.2-5.1-4.2-3.6 0-3.8.2-3.8 3zm0 12.4v4.6h3.6c4.5 0 7.4-1.5 7.4-3.9 0-2.6-1.8-3.8-6.7-4.6l-4.3-.7v4.6zm150.1-222.3c-10.7 6-19.8 10.9-20.3 10.9-.4 0-.8 3.1-.8 7 0 3.8.2 7 .4 7s9.4-5.2 20.3-11.5l19.8-11.4.6 4.7c.4 2.6.4-.3.2-6.3-.3-6.1-.6-11.1-.7-11.1 0-.1-8.8 4.7-19.5 10.7zm-.1 23c-10.7 6-19.8 11-20.3 11.2-.4.1-.7 3.3-.5 7l.3 6.7 20-11.5 20-11.5.6 4.7c.4 2.7.4-.2.2-6.2-.3-6.1-.6-11.1-.7-11.2 0 0-8.9 4.8-19.6 10.8zm.5 22.6c-10.4 5.8-19.2 10.7-19.4 10.9-.2.2.4 1.3 1.4 2.4 1.1 1.3 3.1 2 5.3 2h3.4l-.7 7.5c-.9 9.9-.4 10.5 9 10.5 9.3 0 10-.7 9.1-9.9l-.7-7 2.8-.3c1.5-.3-1.7-.2-7.2 0-6.9.3-9.7.1-9-.6.6-.6 6.2-4 12.5-7.7s11.9-7 12.3-7.4c.5-.5.7-3.1.5-5.9l-.3-5.2-19 10.7zm5.9 20.4c1.5 7.8.6 10.1-4.7 11.4l-2.7.7V846h3.4c3 0 3.4.4 4 3.1z"/></g><path d="M519 110.5v67.6l4.8-2.8c14.8-8.6 20-11.7 23.1-14 5.1-3.9 10.6-13.3 12.6-21.3s2.2-23.9.6-33.9c-.6-3.6-.9-6.6-.7-6.9.2-.2 2.5 2.5 5.2 6 6.5 8.7 6.5 8.6 5.3 4.2-6-23-17.3-42.2-32.1-54.5C530.9 49.2 521.7 43 520 43c-.7 0-1 21.1-1 67.5zm-51-28.9v30.5l2.8-2.1c8.3-6.5 15.1-18.4 15.9-28 .8-7.9-2.4-18.1-7.3-23.8-3.4-4-8-7.2-10.4-7.2-.7 0-1 9.9-1 30.6zm105.1 91.7c-.1 56.4-.1 57.7 1.8 56.8 3.6-2 10.2-10.5 13.7-17.7 4.8-10.1 7.5-21.1 8.1-33.9.7-13.3-1.4-23.2-7.8-36.5-4.6-9.8-12.6-23-13.9-23-.5 0-1.1-.8-1.3-1.8-.3-.9-.5 24.3-.6 56.1zM533 376.4c0 .7-3.6 28.5-8 61.7s-8 61-8 61.6c0 1 4 1.3 16.9 1.3h16.9l.7-9.3c.9-13.2.6-12.7 7.6-12.7h5.9v4.9c0 2.6.3 7.6.6 11l.7 6.1H600l-.5-2.3c-.3-1.2-4.3-28.1-9-59.7-4.6-31.6-8.7-59-9-60.8l-.6-3.2H557c-19.7 0-24 .2-24 1.4zm28 53.9c1.1 12 2 22.7 2 23.8 0 1.6-.7 1.9-5.4 1.9h-5.4l.4-3.8c3-28.1 5.6-47.7 6.1-45.2.1.8 1.2 11.3 2.3 23.3zm118 7.7v63.1l29.8-.3c28.9-.3 29.8-.4 34.5-2.7 11-5.4 12-10.9 11.5-64.3l-.3-38.3-2.9-5.8c-3-6.2-8.3-10.5-15.6-12.8-2-.7-14.8-1.4-30.2-1.6l-26.8-.5V438zm41-39.3c1.3 1.2 1.5 6.8 1.8 36.3.3 36.1-.2 42.4-3.6 43.4-.9.2-2.7.7-3.9 1.1l-2.3.6V396l3.3.7c1.7.3 3.9 1.2 4.7 2zm156.3 249.4c-5.3 1.5-6 3.7-6.7 21.4-.3 8.8-.9 19.2-1.2 23l-.6 7.1 8.8 3.9c4.8 2.2 9 4.1 9.3 4.2.3.2.6-3.4.7-8 0-4.5.2-15.9.4-25.2.4-19.5-.6-25-4.6-26.5-1.4-.6-2.6-1-2.7-.9-.1 0-1.7.5-3.4 1zM107 650c-2.3 4.3-3 18.2-1.9 35.3.6 9.2.9 18.1.7 19.8-.3 1.6-.2 2.8.2 2.7.3-.2 4.6-2.1 9.4-4.3l8.8-4-.6-3.5c-.3-1.9-.9-12.2-1.3-22.9-.6-18.5-.7-19.4-3.1-22.2-1.9-2.4-3.2-2.9-6.8-2.9-3.3 0-4.6.5-5.4 2z" fill="red"/><g fill="#FFF" stroke-width="0"><path d="M474.4 247.9c.4.6 1.6 1.1 2.7 1.1 1.6 0 1.9.7 1.9 4.5v4.5h14.6l-.1-4.5c-.1-2.4-.3-4.6-.6-4.8-.2-.3-4.6-.8-9.8-1.2-6.6-.5-9.1-.4-8.7.4zm43.4-.2-3.8.4v9.9h15v-4.5c0-2.5.5-4.5 1.1-4.5.5 0 .7-.5.4-1-.6-1-5.1-1.1-12.7-.3zm-22 205c-.2 82.4-.2 158.1 0 168.3.1 11.5-.1 17.9-.7 17-1.5-2.5-4.9-16.9-6.6-27.8-.9-5.7-2.3-12.1-3.1-14.3-.9-2.1-2-6.3-2.5-9.2-.8-5.1-.8-5-.3 1.3 1.3 19.1 1.3 20.6-.1 10-.8-5.8-1.3-13.9-1-18 .3-5.8.2-6.6-.5-3.5l-.8 4 .1-5.2c.1-2.8-.1-4.9-.5-4.6-.5.2-.8-.7-.8-2.1 0-1.4-.6-2.6-1.2-2.6-.7.1-14.1 1.6-29.8 3.4l-28.5 3.4-24.9 10.5c-13.7 5.9-25 10.8-25.2 10.9-.1.2.1 8.4.6 18.3 1 18.5 1.1 34.3.3 31.3-.5-2.1-4.9-3.1-8.8-1.9-2.2.7-2.5 1-1 1.1 1.7.2 1.6.3-.5 1-1.4.4-3.4.8-4.5.8-1.6 0-1.5-.2.5-.8 4.3-1.4-.3-1-5.5.4-2.7.8-4.1 1.5-3 1.6 1.7.2 1.6.3-.5 1-1.4.4-3.4.8-4.5.8-1.6 0-1.5-.2.5-.8 7.2-2.3-3.7-.1-42.1 8.5-47.8 10.8-45.9 10.3-44 11.4.8.5.9 1 .3 1.2-1.1.4-10.4 52-9.6 52.8.2.2.7.2 1-.2.5-.5 7.4-41.6 7.4-44.3 0-.6 3.3-2.4 7.3-4 8.6-3.4 22.7-4.7 22.7-2.1 0 1.1-1.7 1.6-6.7 1.9-3.8.3-8.5 1.2-10.6 2.1l-3.8 1.6.2 15.1c0 8.4-.2 15.4-.5 15.7-.3.4-.6-6.2-.6-14.6 0-14-.1-15.2-1.7-14.9-1.7.3-1.8 2.1-1.7 22.3 0 20.3.3 25.5 1.5 25.6.2 0 1.3-.3 2.3-.7 1.9-.7 1.9-.8.1-1.4-1.3-.5-.3-.9 3.2-1.4 4-.5 5.1-1 4.7-2.1-.7-1.8 1.7-2 3.4-.3 1.6 1.6 1.8 1.1 2.6-4.6l.6-4.8-5.8.7c-3.1.4-5.4.4-5.1.1.6-.7 4.4-1.4 7.7-1.5 1.9-.1 2.2-.6 2.2-4.6 0-4.3-.1-4.5-3-4.5-2.8 0-3 .2-3.2 4.2l-.1 4.3-.4-3.7c-.3-2.8-.9-3.8-2.6-4.1l-2.2-.4 2.3-.2c1.8-.1 2.2-.7 2.2-3.5 0-3-.4-3.5-2.7-3.9l-2.8-.4 2.8-.2c2.7-.1 2.7-.2 2.9-7.4l.2-7.2.3 6.7c.4 5.9.6 6.7 2.6 7.1l2.2.4-2.2.2c-1.9.1-2.3.7-2.3 3.7 0 3.3.2 3.5 2.8 3.2l2.7-.3.3-9.5c.3-11 1-14.4 1.1-5.3.1 4.9.4 6.3 1.6 6.3.8 0 1.5-.8 1.5-1.7 0-.9.3-1.4.6-1 .3.3.2 3.6-.2 7.4-.4 3.7-.9 6.2-1.1 5.5-1-2.9-2.3-.8-2.2 3.5.2 4.7.2 4.7.9 1.3 1-5 1.1 0 .1 6.3-.8 4.7-.8 4.7 1.2 2.6 1.5-1.6 2.5-6.2 4.8-23.6 1.5-11.9 3-21.7 3.1-21.8 2-1.9 14.4-5.5 20.9-6.1 7.5-.6 8.1-.5 7.7 1.1-.2 1.4-1.6 1.9-6.6 2.2-3.5.3-8 1-10 1.7l-3.7 1.3-.3 9-.3 9 3.1-.5 3-.4.2-8.7.2-8.6.3 8.2c.4 7.5.6 8.2 2.6 8.6 2.1.4 2.1.4-.2.6-2.1.1-2.3.5-1.9 4.6.3 4.3.2 4.5-2.2 4.4-1.7-.1-1.9-.3-.7-.6s1.7-1.5 1.7-3.9c0-3.3-.2-3.5-2.7-3.2-2.4.3-2.9.8-3.1 3.7-.2 2 .2 3.7 1 4.2 1 .7 1 .9.1.9-1.9 0-1.6 1.8.5 2.3 1.1.3.9.5-.8.6l-2.5.1.3-14.5c.3-12.8.1-14.5-1.3-14.5-1.4 0-1.6 1.8-1.3 15l.3 15h-2.7c-1.6 0-2.8.4-2.8.9s1.9.7 4.3.5c3.9-.3 3.4 0-2 1.2-2.6.5-3.3 4.4-.8 4.4.8 0 1.5.5 1.5 1.1 0 1.2 3.2 1 15.8-1.2 6.1-1.1 7.9-2.3 4.5-3.2-1.7-.4-1.7-.5 0-.6 2.7-.2 2.2-4.1-.5-4.2-2.2-.1-2.2-.1.2-.9 2.3-.7 2.3-.8-1-1l-3.5-.3 3.4-.6c5-.9 5.4-3.3.4-2.8-2.1.3-3 .3-2.1 0 1.4-.4 1.7-2 1.7-12 .1-6.4.3-11.8.6-12.1.3-.3.5 2.9.5 7.2 0 6.8.2 7.7 1.8 7.4 1.1-.2 1.9-1.6 2.3-3.8.6-3.3.6-3.3.8 1.1.1 4.4 0 4.6-2.4 4.1-2.3-.4-2.5-.1-2.5 3.2 0 2.5.4 3.6 1.5 3.6 1 0 1.5-1 1.5-2.7 0-1.4.3-2.4.6-2 1.1 1.1-1.9 28.8-3 28.4-1.9-.7-5.6 1.2-5.6 2.8 0 1.9 1.1 1.9 3.5.1 1-.7 2.7-1.1 3.7-.8 1 .2 2-.2 2.2-.9.5-1.4 5.6-51 5.6-54.1 0-2.7 16.2-7.8 24.9-7.8h7.4l-.6 8.2c-.4 4.6-.7 10.5-.7 13.2 0 2.7-.3 4.7-.6 4.3-.8-.8-.6-15 .2-19.5l.7-3.4-6.9.7c-3.8.3-9 1.4-11.6 2.3l-4.8 1.6v17.7l2.8-.3c2.6-.3 2.7-.5 3.3-7.8l.5-7.5.2 6.7c.2 5.2.6 6.9 2 7.7.9.6 1.2 1.1.5 1.1-.9 0-1.2 3.3-1.2 12.1.1 6.6-.2 12.3-.5 12.6-.3.4-.6-.5-.6-2 0-1.6-.7-2.7-1.7-3-1.7-.4-1.7-.5 0-.6 1.4-.1 1.7-1 1.7-5 0-3-.5-5.1-1.2-5.4-1-.4-1-.6 0-.6.6-.1 1.2-1.2 1.2-2.5 0-4.2-.9-5.3-4-4.8-2.5.4-2.9.9-3.3 4.1-.2 2-.4-2.1-.5-9.2-.1-7.9-.6-12.7-1.2-12.7s-1.3.6-1.6 1.3c-.2.7-.1 20.2.3 43.2.7 38.8.9 42 2.6 42.3 1.5.3 1.7-.5 1.9-6 .1-5.7.2-5.9.5-1.5.4 4.6.6 4.8 3.1 4.5 2.5-.3 2.7-.6 3-6.2l.3-5.8-3.5.4c-2 .2-3.6.1-3.6-.3s1.5-.9 3.3-1.1c2.8-.3 3.2-.7 3.5-3.5.3-3 .5-3.1 2.8-2.2 3.1 1.1 4.4.5 4.5-2.4.1-1.8.2-1.9.6-.4.6 2.4 2.7 1.6 3.1-1.1.2-1.5-.2-2.2-1.2-2.2-.9 0-1.6-.5-1.6-1 0-.6-1.2-1.1-2.7-1.1-2.4-.2-2.4-.2-.6-.6 1.6-.3 2.4-1.4 2.9-3.9.3-1.9 1.2-3.4 2-3.4 1.9 0 2.8-2.1 1.3-3.1-1-.6-1.1-.9-.1-.9.8 0 1.2-1.7 1.2-5 0-4.3-.3-5-2-5-1.6 0-2 .7-2.1 3.2-.2 3-.2 3-.6.6-.3-2-1.1-2.8-3.1-3.1l-2.7-.4 2.8-.2c2.3-.1 2.7-.5 2.7-2.9 0-4.6-1.1-7.1-3.4-7.5-2.1-.4-2.1-.4.2-.6 1.9-.1 2.2-.7 2.2-4 0-2.9-.5-4.1-1.7-4.4-1.7-.4-1.7-.5 0-.6 1.4-.1 1.7-1.2 1.9-7.4l.2-7.2.3 6.7c.4 6.6.5 6.8 3.1 6.9l2.7.1-2.5.7c-2 .5-2.6 1.4-2.8 4.4-.3 3.5-.2 3.7 2.7 3.7 1.9 0 3.1-.6 3.5-1.8.3-.9.2 4.5-.1 12-.5 12-.3 13.8 1 13.8 2.1 0 2.4-2.2 3.8-29 .7-12.9 1.5-24.4 1.9-25.5.5-1.4 3-2.8 7.3-4.4 3.6-1.2 6.8-2.8 6.9-3.3.2-.6.9 12.1 1.6 28.2.7 16.1 1.5 29.6 1.8 30.1.6 1.1 7.1 1.2 7.7.1.3-.4-.8-24.8-2.3-54.2-1.6-29.4-2.7-53.7-2.4-53.9.2-.2 10-4.5 21.6-9.4l21.3-8.9 22-2.4c29.8-3.2 27.5-3.3 27.4 1.8-.1 2.4-.3 3.5-.6 2.5-.6-2.2-.9-2.2-25.5.4l-20.3 2-20.5 8.8-20.5 8.8.3 11.4c.1 6.2.3 11.4.5 11.5.1.1 2.3-.2 4.9-.8 4.2-1 4.7-1.4 5.1-4.2.2-1.7.4-.4.4 2.9s-.2 5-.4 3.7c-.3-1.7-.9-2.2-2.1-1.7-.9.4-3.2.9-5.1 1.2l-3.3.6.7 7.6c.4 4.2.8 7.7.9 7.8 0 .1 2.2-.4 4.9-1 4.7-1 4.7-1.1 4.7-5.2 0-4 .2-4.2 3.9-5.3 2.1-.7 4.8-1.2 5.9-1.2 1.5 0 2.2-.8 2.5-2.8.2-1.5.5.4.6 4.2.1 6.6.2 6.8 2.4 6.2 1.2-.3 3.9-.9 6-1.2l3.7-.7.1-5.6c.1-4.6.3-3.9 1.1 3.8.5 5.2 1 9.6 1.1 9.8.2.1 3-.3 6.4-1l6.1-1.1-.5-6.1c-.7-9.3-1.1-10.8-3.1-10-.9.4-3.5.9-5.7 1.2-5.3.6-2.6-1.2 3.2-2.2 4-.6 4.2-.9 4.5-4.3.2-2 1.4 8.1 2.7 22.6l2.5 26.4 3.5-.7c9.5-1.6 9.2-1.4 8.7-4.8-.3-1.8-1.1-9.7-1.7-17.7-.6-8-1.3-14.7-1.4-14.8-.2-.2-2 .1-3.9.8-2 .6-4.6 1-5.8.8-1.5-.3-.2-.9 3.8-1.8l6-1.3-.2-6.1c-.2-3.4.7 2.8 1.8 13.6l2.1 19.8 5.6-.5c4-.3 4.9-.2 3.1.4-1.4.5-3.7.9-5.2 1-3.2.1-3.4 1.4-2.2 12.8l.7 6.1 3.1-.9c1.7-.5 4.4-.9 6-.9h2.9l-.7-6.8c-2.9-29.7-4.3-50.9-2.9-43.4.3 1.7.9 2.2 2.1 1.7.9-.4 3.7-.9 6.2-1.1 3.6-.3 4-.2 2 .5-1.4.5-4.2 1.2-6.3 1.6-3.8.6-3.8.7-3.3 4.3.3 2 1 9.1 1.6 15.7 1.6 17.9 1 16.6 7.8 16 4-.4 5.1-.3 3.7.4-1.1.5-3.7 1-5.8 1l-3.9.1.7 7.7c.8 9.7 1.3 11.6 3 11 .7-.3 3.4-.9 6.1-1.3 2.7-.4 5.2-1.2 5.6-1.8.4-.6.7.9.6 3.4-.1 3.1-.2 3.6-.5 1.7-.4-2.4-.8-2.8-2.6-2.3-1.2.3-4.1.8-6.5 1.2l-4.4.7.7 8.6c.4 4.7.9 8.9 1.1 9.2.2.3 2.9.5 6.1.3l5.8-.3-5.8 1.1-5.8 1.1.7 9.1c.3 5 .8 9.4 1 9.8.6.9 4.4-.3 4.4-1.4 0-.5.5-.6 1-.3.6.3 1-.1 1-.9 0-1.7 1.5-2.2 2.4-.7.3.5 1.5 1.1 2.6 1.4 2 .5 2 .2 1.6-7.1l-.5-7.7 1 7.5c1 7.5 2.8 10.6 5.6 9.6 2.5-1 4.3.4 3.2 2.5-.6 1.3-.6 1.9.1 1.9.5 0 1 .4 1 1 0 .5-.7 1-1.6 1-.9 0-1.4.6-1.1 1.2.2.7 1.2 1.2 2.1 1.2 1.4-.2 1.6 1.9 1.6 20.2 0 17.1-.2 20.4-1.4 20.4-1.8 0-2.9 1.7-2.1 3 .5.8 1.1.7 2.1-.1 2.1-1.7 1.7.2-.6 2.6-2.2 2.4-1.8 6.1.9 6.8 1.5.4 1.4.5-.1.6-1 .1-1.8 1.2-2.1 2.8-.3 2-.4 1.6-.6-1.4 0-2.3-.5-4.4-1-4.7-1.2-.8-3.4 2-2.8 3.6.3.8.9.3 1.5-1.2l1.1-2.5v2.7c.1 1.6-.6 3.1-1.7 3.7-2.3 1.2-5.6 13.6-4.7 17.4.6 2.4 1.2 2.7 5.2 2.7h4.5l-.5-8.7c-.5-7-.4-7.7.3-3.3.4 3 .8 7.1.9 9.2.1 3.6.1 3.6-4.9 4.3-5.8.8-5.7.4-3.8 13.2l1.2 8.3 4.6.1 4.5.1-4.4 1.1-4.4 1 .6 10.4.5 10.3h-2.4c-1.5 0-2.4.6-2.4 1.5 0 1.2 1.4 1.5 6.5 1.5h6.5v77.3l14.3-.6c68.9-3.2 134.1-32.2 183.8-81.7 16.7-16.6 24.4-26.1 37-44.8 19.2-28.9 34.3-64.9 40.8-97.2 5.9-29.3 5.5-14.7 5.8-219.8l.4-188.2H496l-.2 149.7zm143.1 114c0 .2 3.7.3 8.1.3h8l-.2 74.3-.3 74.3 2.6.2c1.4.1 12.6-1.6 24.7-3.8 12.2-2.2 22.4-4 22.7-4 .3 0 .5 9.7.5 21.5V751l-2.2-.5c-12.2-2.7-44.8-8.5-47.9-8.5H651v7.5c0 7.2.1 7.5 2.9 8.9 1.6.9 3.3 2.8 3.8 4.3s.8 19.3.8 39.5l-.1 36.8-2.4 2.5c-1.4 1.5-4 2.8-6.2 3.2l-3.9.6.7 6.8c.9 9.2.2 9.9-9.1 9.9-9.4 0-9.9-.6-9-10.5l.7-7.5h-3.5c-2.7 0-4.1-.7-6.1-3.1l-2.6-3.1v-36.3c0-21.6.4-37.4 1-39 .5-1.4 2.3-3.4 4-4.3 2.9-1.6 3-1.9 3-9V742h-4.2c-3.3 0-35 5.7-47.5 8.5l-2.3.5v-21.5c0-11.8.2-21.5.4-21.5s10.3 1.8 22.5 4c12.1 2.2 23 4 24.1 4 2 0 2-.3 2-173.2V369.7l8.8-16.6 8.7-16.6.6 115c.3 63.3.7 115.1.8 115.2zm-57.4-188.5c.3 1.8 4.4 29.2 9 60.8 4.7 31.6 8.7 58.5 9 59.7l.5 2.3h-33.7l-.7-6.1c-.3-3.4-.6-8.4-.6-11V479h-6c-6.9 0-6.5-.7-7.5 13.2l-.7 8.8h-16.9c-12.9 0-16.9-.3-16.9-1.3 0-.6 3.6-28.4 8-61.7 4.4-33.3 8-61 8-61.7 0-1 5.3-1.3 24-1.3h23.9l.6 3.2zm148.9-2.2c14.4 2.1 21.9 9.3 23.7 22.7 1.2 9.4 1.1 74.2-.2 82.8-1.2 8.8-4.2 13.5-10.6 16.6-4.7 2.3-5.6 2.4-34.5 2.7l-29.8.3V375h22.3c12.2 0 25.3.5 29.1 1z"/><path d="M557.2 413.5c-.7 4.4-1.9 14.3-2.7 22-.8 7.7-1.7 15.5-1.9 17.2l-.5 3.3h5.5c4.7 0 5.4-.3 5.4-1.9 0-2.3-3.9-44.8-4.3-47.1-.2-.8-.8 2.1-1.5 6.5zM712 438.1v42l2.3-.6c1.2-.4 3-.9 3.9-1.1 3.4-1 3.9-7.3 3.6-43.4-.3-38.4-.1-37.2-6.5-38.3l-3.3-.7v42.1zM338.5 334.6c-8.8 6.8-18.1 16-23 22.9-4.7 6.6-9.5 15.7-9.4 17.7 0 .7 2.8 3.1 6.2 5.4 3.4 2.2 7.7 6.1 9.6 8.6l3.5 4.6 4.5-3.9c5.9-5.3 16-10 29.8-14.1 6.2-1.8 11.3-3.6 11.3-4 0-.3-3.4-5.9-7.6-12.4-4.1-6.5-9.8-15.8-12.6-20.6-2.8-4.9-5.3-8.8-5.7-8.8-.3 0-3.3 2.1-6.6 4.6z"/><path d="M410.6 339.4c-10.4 23.1-19.9 31-50.1 41.6-16.8 5.9-25.5 10.2-31.8 15.9l-5.4 5-1.7-3.5c-2.4-5.1-11.1-14-16-16.4-4.9-2.3-12.2-2.6-16.9-.6-1.8.7-5.9 4.2-9.1 7.7-3.1 3.5-7.2 7.3-9 8.4-1.8 1.1-3.4 2.4-3.5 2.9-.1.5 2.1 2 5 3.5 3.4 1.7 6 3.9 7.3 6 1.9 3.2 1.9 4.1.8 18.5-1.6 20-1.5 27 .4 34.1 3.1 12 10.3 20.8 20 24.4 3.1 1.2 15.8 4 28.3 6.1 26.7 4.8 33.4 6.6 46.1 12.7 7.6 3.7 10.9 6 16.5 11.7 7 7 12.8 16.7 14.2 23.7 1.2 6.3 2 2.2 2.6-13.4.9-22.4 4-35.9 10.7-46.8l2.9-4.8-7.2-2.1c-12.3-3.6-20.2-6.2-21.1-7-1.2-1.2 3.9-7.8 9.6-12.5 10.9-8.9 13.6-16 14.8-39 .8-15.3 1-16.6 5.1-28.5 4.2-12 4.4-13 4.4-24.5s-.1-12.2-3.2-18c-1.7-3.3-4.6-7.7-6.5-9.8l-3.3-3.9-3.9 8.6zm-11.4 291.9-4.3 1 .3 7.6.3 7.6 5.5-.2c4-.2 4.9 0 3.5.6-1.1.5-3.5 1-5.4 1l-3.3.1.3 7.9c.2 4.4.7 8.2 1 8.5.3.3 2.7.2 5.2-.3 2.6-.4 4.7-.5 4.7 0s-2.3 1.1-5.1 1.5l-5.1.7.7 14.1c.4 7.8 1.2 14.7 1.8 15.4.6.8 2.1 1.2 3.4.9 1.3-.2 2.8.2 3.4.9 2.5 3.1 3.9 1.6 3.9-4.4 0-9.7-.4-10.2-6.4-9.6-3.7.3-4.5.2-3.1-.5 1.1-.5 3.5-1 5.3-1 3.9-.1 3.7 2.1 1.7-28.6-.8-12.1-1.5-22.6-1.5-23.3 0-1.4-.8-1.4-6.8.1zm13.6 6-4.8 1v5.2c0 8.1 1 11.7 2.9 11 .9-.4 3.3-.9 5.4-1.2l3.8-.6-.3-8c-.2-4.4-.7-8.1-1.3-8.2-.5-.1-3.1.3-5.7.8zm-24.7 5.1-4.3 1 .6 8.6c.3 4.7.8 14.6 1.1 22 .3 7.4.8 15.3 1.1 17.6l.5 4 5-1c4.9-1 5-1.1 4.5-3.9-.3-1.6-.6-5.4-.6-8.3V677l-4.7.5c-3.5.4-4.2.3-2.8-.4 1.1-.5 3.3-1 4.9-1 2.8-.1 2.9-.2 2.2-4.7-.3-2.6-.6-6.4-.6-8.5V659l-4.7.5c-3.5.4-4.2.3-2.8-.4 1.1-.5 3.3-1 4.9-1l2.9-.1-.7-6.1c-.3-3.4-.6-7.3-.6-8.5 0-1.3-.3-2.3-.7-2.3-.5.1-2.8.7-5.2 1.3zm38.3.9-5.2 1 .5 8.1c.3 4.5.7 8.2.8 8.4.2.2 3.1-.2 6.5-.9l6.3-1.2-.7-6c-.3-3.3-.6-7.1-.6-8.3 0-2.6 0-2.6-7.6-1.1zm-60.1 11.1-3.3.9-.2 8.1-.2 8.1-.5-8c-.3-4.4-.9-7.5-1.4-6.8-1.1 1.7 1 46.4 2.2 47.6.8.8 1.1-.6 1.1-4.6 0-5.3.2-5.7 2.3-5.6 1.6.1 1.8.2.5.6-1.4.3-1.8 1.5-1.8 4.8 0 3.9.3 4.3 2.7 4.8 3.9.7 4.3.2 4.3-5.3 0-3.8-.4-5-1.7-5.3-1.6-.4-1.6-.5.1-.6 1.6-.1 1.8-.7 1.2-4.8-.3-2.6-1.2-5-1.9-5.5-.9-.6-.9-.8.1-.8.7 0 1.2-1.5 1.2-4.1 0-3.9-.1-4-3.2-3.7-3.1.3-3.3.6-3.6 4.5-.3 3.7 0 4.2 2 4.6 2.2.4 2.2.4.1.6-1.8.1-2.2.8-2.6 4.3-.2 2.4-.4 0-.5-5.2l-.2-9.6 3.2-.2c1.8-.2 3.6-.6 4.1-1.1.5-.5.5-4.9 0-9.8l-.8-8.9-3.2 1zm47.4.8-4.9 1.1.7 8.1c.4 4.4.8 8.2.9 8.3.2.2 2.9-.2 6-.9 5.7-1.1 5.8-1.2 5.2-4.1-.3-1.6-.6-5.4-.6-8.3 0-5.9.3-5.7-7.3-4.2zm17.8 5.8c-1.1.5-3.5.9-5.2.9-3.1.1-3.3.3-3.3 3.8 0 2.1.3 6.2.6 9l.7 5.3 4.1-.6c8.7-1.1 8.4-.9 7.9-6.1-.8-9.3-1.4-13.3-2.1-13.2-.4 0-1.6.4-2.7.9zm11.6 7.4-5.4 1 .7 8.5c.3 4.7.8 8.6.9 8.7.1.2 2.8 0 6-.3l5.7-.6v-4.1c0-5.8-1.2-14.6-1.9-14.4-.3 0-3 .6-6 1.2zm-27.7 4.9-5.2 1 .6 8.6c.2 4.7.5 8.7.6 8.7 0 .1 2.7-.3 6-.9l5.9-1.1-.7-6.5c-.3-3.6-.6-7.6-.6-8.9 0-1.2-.3-2.1-.7-2-.5 0-3.1.6-5.9 1.1zm41.6 2.6c-5 .7-4.7-.4-3.5 12.2l.6 6.6 5.7-.3 5.7-.3-5.8 1.1-5.7 1.1.5 5.1c.3 2.8.8 7 1.1 9.3l.5 4.1 5.7-.5c3.1-.3 5.8-.6 5.9-.7.3-.2-2.8-33.9-3.3-36.4-.2-1.2-1-2.1-1.7-2-.6 0-3.2.4-5.7.7zm-24 4.1c-1.4.4-3.9.8-5.7.9l-3.2.1.6 8.7c.3 4.9.7 8.9.8 9.1.1.1 2.9-.1 6.3-.4 6.2-.7 6.2-.7 6.2-3.9 0-5.4-1.2-15.5-1.9-15.4-.3.1-1.7.5-3.1.9zm10.2 7.7-4.3.4.6 5.2c1.5 13.6 1.6 13.8 3.3 13.3.9-.2 3.7-.8 6.1-1.1l4.4-.7-.7-6.1c-.3-3.3-.6-7.3-.6-8.8 0-3.1.5-3-8.8-2.2zm-26.4 4.5c-4.7 1-4.8 1.1-4.8 4.7 0 2.9.5 3.8 2.8 4.9 2.3 1.1 2.9 1 3.9-.4.7-1 1.9-1.4 3.2-.9 1.6.5 2.1.2 2.1-1.3 0-3.1-1.2-8.2-1.9-8.1-.3.1-2.7.6-5.3 1.1zm13.5 7.5c-3.5.3-4.3.8-4.3 2.4 0 1 .6 1.9 1.3 1.9.8 0 2.2.9 3.2 2s2.6 2 3.7 2c1 0 1.8.4 1.8 1 0 .5.8 1.4 1.8 1.9 1.5.8 1.7.3 1.4-5.5-.4-7.1.5-6.5-8.9-5.7zm16.4 7.7-5.7.9.6 8.1c.3 4.5.7 8.6.9 9.2.2.7 2.5 1 6.2.8 4.2-.3 5.1-.1 3.3.5-1.4.5-4 .9-5.9 1l-3.4.1.7 7.2c.7 7.3 2.2 11 3.7 8.7.5-.9 1.5-.9 3.8-.1 1.9.7 3.3.7 3.6.1.4-.5.2-.9-.3-.9s-.9-1.1-.9-2.5c0-1.5.5-2.5 1.3-2.5.9 0 1.4-1.1 1.3-2.8-.1-5.3-2.5-28.1-2.9-28.4-.3-.2-3.1.1-6.3.6zM439 715c-.1.8-.2 2-.1 2.7.1.7-1 2-2.4 2.9-2.1 1.4-2.3 1.9-1.3 3.2 2.5 3 .2 9.9-3.4 10.4-1.4.2-2.4 1.1-2.6 2.4-.3 1.9.1 2 6 1.7 4.1-.1 5.4 0 3.8.5l-2.5.8 2.2 1.2c1.4.8 2.4.9 2.8.2.3-.5.1-6.5-.5-13.2-1.1-12.3-1.7-15.6-2-12.8zm20.7.7-3.9.4.6 4.7c.3 2.6.8 7.4 1.2 10.7.6 5.8.6 5.9 2.3 3.8 1.3-1.5 2.5-1.9 4.4-1.6 2.1.4 2.6.2 2.2-.9-.3-.8.1-2.1 1-2.8 1.6-1.3 1.9-5 .9-11.3-.7-4-.3-3.8-8.7-3zM308 734c0 1.6.5 3 1 3 .6 0 .9 2.1.8 4.7l-.1 4.8-.5-4c-.3-3.3-.6-3.6-1.3-2-.8 1.9-.8 1.9-1.5-.3-1.2-4.1-2.4-2.3-2.4 3.8 0 5.2.2 6 1.9 6 1.1 0 2.2-.6 2.4-1.3.3-.6.5.8.5 3.3-.1 2.8-.3 3.4-.5 1.7-.3-1.9-1-2.7-2.4-2.7-1.6 0-1.9.7-1.9 5.5 0 4.1.4 5.5 1.4 5.5.8 0 1.7-1 1.9-2.3.2-1.2.4 0 .4 2.8 0 2.7-.2 3.9-.4 2.7-.3-1.8-1-2.3-2.4-1.9-1.7.5-1.9-.1-1.9-5.8 0-5.2-.3-6.4-1.7-6.8-1.7-.4-1.7-.5 0-.6 1.4-.1 1.7-1.1 1.7-5.7 0-4-.4-5.4-1.2-5.2-1.9.7-3.5 7.6-3.7 16-.1 7.2 0 7.7 2.1 8.1l2.3.4-2.2.2c-1.8.1-2.3.7-2.3 2.7 0 2.6 0 2.6 6.3 1.9 3.4-.4 6.2-.8 6.3-.9.1 0 .8-7.5 1.7-16.5 1.3-13 1.4-16.7.4-17.3-.7-.4-1.5-.1-1.9 1-.5 1.2-.7 1-.7-1.1-.1-3.7-2.1-3.5-2.1.3zm-14.4-.3c-.3.3-.6 8.4-.6 18 0 14.7.2 17.3 1.5 17.3s1.5-2.6 1.5-17.4c0-15.9-.5-19.8-2.4-17.9zm44.4 6.2c0 6.1.1 6.3 2.3 5.7 1.2-.3 2.5-.6 3-.6.4 0 .7-1.6.7-3.5 0-2.4-.5-3.5-1.4-3.5-.8 0-2.2-1-3-2.2-1.5-2.1-1.6-1.9-1.6 4.1zm-60.8-2.7c-.7.7-1.2 2.6-1.2 4.2 0 2.2-.3 2.7-.9 1.7-.5-.8-1.6-1.1-2.5-.8-2.2.9-2.3 10.7-.1 10.7 1.1 0 1.5 1 1.4 3.2-.2 3.1-.2 3.1-.6.5-.8-4.9-2.3-2.8-2.2 3 .1 5 .3 5.4 1 2.8.6-2.1.6-1.2.3 2.8-.5 5.3-.4 5.8 1.3 5.5 1.5-.3 2.1-2.3 3.5-13.3.9-7.2 1.9-14.9 2.3-17.3.6-4.2-.1-5.2-2.3-3zm-17.1 3.9c-1.7 5-1.4 27.1.4 29.5 1.3 1.7 1.4 0 1.5-15.4 0-9.4-.2-17.2-.4-17.2s-.9 1.4-1.5 3.1zm4.9 3c0 .5-.4.7-1 .4-.6-.4-1 1.3-1 4.4v5.1h3.5c3.5 0 3.5 0 3.5-4.5 0-3.1-.4-4.4-1.2-4.3-.7.2-1.2-.3-1-1 .1-.6-.5-1.2-1.3-1.2s-1.5.5-1.5 1.1zm-23.8 12.3c-1.4 8-1.9 13.2-1.4 14.7.7 1.7 1.4-1 3-11.1 1.2-7.3 1.8-13.9 1.4-14.7-.5-.8-1.7 3.6-3 11.1zm21.8 4c0 5.4 0 5.5 3.3 5.9l3.2.4-3.2.1c-2.9.2-3.3.6-3.3 2.8 0 2.5.2 2.6 3.6 2.1 2-.3 3.8-.7 3.9-.9.1-.2 0-3.8-.2-8.1l-.6-7.7H263v5.4zm204.3 22.5c-1.7 1.6-2.9 3.2-2.5 3.5.3.3 0 .6-.6.6-.8 0-1.2 2.1-1.2 6v6h6.5c7.3 0 7.1.3 5.9-8.4-.5-3.3-1.1-4.6-2-4.2-1.9.7-3-1.4-1.3-2.5 1.2-.7 1.1-1.1-.2-2.4-1.4-1.4-1.8-1.3-4.6 1.4zm-62.3 8.6c0 1.2-.3 4.3-.6 6.9-.6 4.2-.5 4.6 1.4 4.6 1.4 0 2.7-1.3 4.1-4.3 2.3-4.8 2.6-6.7 1.1-6.7-.5 0-1-.6-1-1.3 0-.6-1.1-1.3-2.5-1.3-2-.2-2.5.3-2.5 2.1zm36.8-1.5c-1 .6-1.4 1.8-1.1 3 .7 2.6-1.6 5.3-4 4.6-1.3-.3-1.7 0-1.3 1.1.3.8.6 1.7.6 1.9 0 .3 1.5.2 3.4-.2 1.9-.3 4.3-.1 5.3.5s1.2 1.1.5 1.1c-.8 0-1 .9-.6 2.7 1.8 7.7 3.5 3.9 2.7-6.2-.7-9-1.7-10.6-5.5-8.5zm11.5.7c-5 .4-5.3.6-5.2 3.1.1 5.2 1.4 10.7 2.2 9.4 1-1.5 7.2-4.2 9.8-4.2 1.3 0 1.9-.7 1.9-2.3 0-3.6-1.1-6.7-2.4-6.5-.6.1-3.5.3-6.3.5zM418 794c0 .5.6 1 1.3 1 .8 0 .9.2.1.8-.8.5-1 3.3-.6 8.4.4 7.3.6 7.8 2.8 7.8 1.2 0 2.6-.5 3-1.1.4-.6 2-.8 4-.4 3.3.6 3.4.5 3.4-2.8 0-1.9-.7-4-1.5-4.7-.9-.7-1.3-1.5-1-1.8.8-.9-1.7-3.2-2.8-2.5-.6.3-.7.1-.3-.5.4-.7.1-1.2-.6-1.2-.9 0-.9-.3.2-1s1.1-1 .2-1c-.7 0-1-.5-.7-1 .4-.6-1-1-3.4-1-2.3 0-4.1.4-4.1 1zm-4.3 4.8c-2.2 2.4-2.1 3.2.3 3.2 3.3 0 2.3 1.8-1.2 2.2-4.3.4-7.8 6.8-7.8 14.5v5.4l6-.7c4.2-.5 6-.3 6 .5 0 .7-2.2 1.1-5.9 1.1-3.8 0-6.1.4-6.4 1.2-.3.7-.6-1.1-.6-4.1-.1-4.8-.3-5.2-1.7-4-1.3 1-1.4 2.5-.9 8.3.4 3.9 1.2 7.7 1.7 8.3.7.9.7 1.3-.2 1.3-.8 0-.9 1-.4 3.2.4 1.8.7 4.1.6 5.2-.1 1.6.4 1.8 4.5 1.2 2.5-.3 6.4-.6 8.7-.6 3.3-.1 3.7-.3 2.3-1.1-1.1-.7-1.5-1.8-1.2-3.5 1.8-8.6 1.9-8.3-1.8-4.2-1.8 2.1-4 3.8-4.9 3.8-.9 0-2 .5-2.3 1-.4.6-1.1.8-1.6.5-.5-.4-.9.2-.9 1.2-.1 1.6-.2 1.6-1 .2-.5-.9-.5-3.6-.1-6.5.5-2.7.9-3.9 1-2.7 0 1.3.4 2.3.7 2.3.3 0 2.9-2 5.6-4.5 2.8-2.5 5.5-4.5 6-4.5 1 0 .7-9.4-.9-24.3-.6-6.2-1.1-6.7-3.6-3.9zm-44.2 15.9c.3 8.2.8 18.5 1.1 23l.6 8.3h7.7l.4-7.3.3-7.2.2 7.2.2 7.3h10.2l-.7-12.8c-.9-18-4.9-31.2-9.5-31.2-1.1 0-2 .9-2.3 2.2-.4 2.1-.4 2-.6-.3-.1-2.8-1.7-3.9-5.7-3.9H369l.5 14.7z"/><path d="M470.5 801c-1.7.7-1.7.9-.2.9 3.1.2 1.3 2.6-2.3 3.1-3.2.5-3.5.8-3.5 4-.1 5.2.3 5.7 4.3 6.4 2 .4 5 .9 6.5 1.2l2.8.6-.6-6.4c-1.1-11.4-1.6-12.1-7-9.8zm-136.2.7c-1 .3-1.3 5.8-1.3 22.4V846h22.9l.4-7.8.3-7.7.2 7.7c.2 7.1.4 7.8 2.2 7.8 1.9 0 2-.6 1.9-17.8-.1-20.7-.7-26.7-2.9-26.7-1.2 0-1.6 2.2-2 11.5l-.6 11.5-.2-11.5-.2-11.5-9.8-.2c-5.3 0-10.3.1-10.9.4zm-28.3 1.2-7.5.6-.3 22.2-.2 22.3h-2.6c-1.4 0-2.3.4-1.9 1 .4.6 6.4 1 14.8 1h14.2l-.6-23.7c-.3-13.1-.6-23.9-.7-24.1-.1-.1-.9-.2-1.7-.2-1.1 0-1.5 1.8-1.8 8.2l-.3 8.3-.2-8.3c-.2-7.1-.4-8.2-1.9-8-1 .1-5.2.4-9.3.7zm-38.7 1.8c-2.8.4-3.1.8-3.5 4.3-.3 3.4.3 4.7 5.7 11.8 3.3 4.3 7.4 9.7 9.2 11.8l3.2 3.9.1-16.3V804l-5.7.2c-3.2 0-7.2.3-9 .5zm15.7 16c0 14.4.3 17.1 1.8 19 1.6 2.2 1.7 1.5 1.4-16.7-.2-15.8-.5-19-1.7-19-1.3 0-1.5 2.7-1.5 16.7zm136.7-7c-.2.5-.2 1.4-.1 2 .1.7.2 3.3.3 5.7l.1 4.5 3.3-1.1c1.7-.5 4.7-1.7 6.5-2.5 2.8-1.2 3-1.6 1.8-2.9-.8-.7-2.6-1.4-4-1.4s-2.6-.3-2.6-.8c-.1-1.1-4.8-4.3-5.3-3.5zm53 9-3.8.4 1.6 2.5c2.2 3.4 1.3 5.9-1.4 4.2-3.4-2.1-3.8.2-.4 3 1.7 1.5 5.1 4.3 7.5 6.3l4.3 3.6.1-9.1c0-5-.2-7.5-.5-5.6l-.5 3.5-.5-4.4c-.6-4.8-.8-4.9-6.4-4.4zm-14.9 13c.6 1.1 1.8 2.6 2.7 3.3 1.9 1.6 6.2 9.5 4.6 8.5-.6-.3-1.1-.1-1.1.4 0 1.9-2 1.2-4.5-1.5-1.4-1.5-2.5-2.3-2.5-1.8 0 .5-.9-.6-2-2.4-1.1-1.7-2.2-3.2-2.4-3.2-.2 0 0 1.9.5 4.2.6 2.3.7 5.4.4 7l-.7 2.8h29.4l-.6-2.3c-.3-1.2-.6-2.7-.6-3.4 0-.6-.9-1-2-.8-1.1.2-2.2 0-2.5-.6-.4-.5-2.5-.9-4.8-1-2.3 0-3.7-.3-3-.5 1.6-.7.5-3.4-1.3-3.4-.8 0-1.4-.8-1.4-1.7 0-.9-.3-1.3-.6-1-.4.4-1.9-.2-3.3-1.2-4.9-3.4-5.4-3.5-4.3-1.4zM301 852c8.3 1.2 26 1.2 26 0 0-.6-5.8-.9-15.7-.9-11.9.1-14.4.4-10.3.9zm-1.1 3.3c1.1 1.4 3.4 1.7 14.2 1.7 7.9 0 12.9-.4 12.9-1s-4.6-1-11.7-1c-6.5 0-12.9-.3-14.3-.7-2.2-.6-2.4-.5-1.1 1z"/></g><path d="M387.8 258.7c8.9.2 23.5.2 32.5 0 8.9-.1 1.6-.3-16.3-.3-17.9 0-25.2.2-16.2.3zm264 0c7.9.2 20.5.2 28 0 7.5-.1 1.1-.3-14.3-.3s-21.6.2-13.7.3z" fill="#4D8F4D" fill-opacity=".38"/><path d="M489.6 280.1c-8.6 12-15.6 22-15.6 22.3 0 .3 14.5.6 32.3.6l32.2-.1 15.3-21.6c8.4-11.9 15-21.8 14.7-22.1-.3-.3-14.6-.6-31.9-.7l-31.5-.2-15.5 21.8zm-126.3-9.9c-4.4 6.2-11.4 16.1-15.6 22L340 303h64.9l14.8-20.8c8.2-11.4 15.2-21.3 15.7-22 .6-.9-6-1.2-31.7-1.2h-32.5l-7.9 11.2zm270.9-6c-2 2.9-8.9 12.7-15.3 21.8l-11.7 16.5 43.4.3c47.3.2 48.4.1 52-5.4 2.1-3.1 3.1-17.6 1.9-27.1-.5-4.5-1.3-6.3-3.7-8.5l-3-2.8H638l-3.8 5.2z" fill="#0F0"/><path d="M214 431v128h282V303H214v128zm136.8-92.2c2.8 4.8 8.5 14.1 12.6 20.6 4.2 6.5 7.6 12.1 7.6 12.4 0 .4-5 2.2-11.1 4-13.9 4.1-24.2 8.9-30 14.1l-4.5 3.9-3.5-4.6c-1.9-2.5-6.2-6.4-9.6-8.6-3.4-2.3-6.2-4.7-6.2-5.4-.3-4.4 10.8-20.9 20.1-29.8 6.2-6.1 17.7-15.4 18.9-15.4.4 0 2.9 3.9 5.7 8.8zm73.5 5.7c3.1 5.8 3.2 6.4 3.2 18-.1 11.6-.2 12.5-4.8 26.3-4.5 13.5-4.7 14.8-4.7 25.5 0 11.8-1.7 22.2-4.6 28.3-1 2-6 7.8-11.2 13-5.1 5.1-9.2 9.9-9 10.6.4 1.2 7.2 3.6 21.5 7.8l7.2 2.1-2.9 4.8c-6.7 10.9-9.8 24.4-10.7 46.8-.6 15.6-1.4 19.7-2.6 13.4-1.4-7-7.2-16.7-14.2-23.7-5.6-5.7-8.9-8-16.5-11.7-12.7-6.1-19.4-7.9-46.1-12.7-12.5-2.1-25.2-4.9-28.3-6.1-9.7-3.6-16.9-12.4-20-24.4-1.9-7.1-2-14.1-.4-34.1 1.1-14.4 1.1-15.3-.8-18.5-1.3-2.1-3.9-4.3-7.3-6-2.9-1.5-5.1-3-5-3.5.1-.5 1.7-1.8 3.5-2.9 1.8-1.1 5.9-4.9 9-8.4 3.2-3.5 7.3-7 9.1-7.7 4.7-2 12-1.7 16.9.6 4.9 2.4 13.6 11.3 16 16.4l1.7 3.5 5.4-5c6.3-5.7 15-10.1 31.8-15.9 18.3-6.4 27.6-11.2 34.3-17.8 6.1-5.9 13.4-17.3 17.3-27l2.3-5.5 3.4 3.9c1.9 2.1 4.8 6.6 6.5 9.9zm16.7 233-20.5 2.3-21.3 8.9c-11.6 4.9-21.4 9.2-21.6 9.4-.4.4 3.5 81.2 4.8 100.6l.6 8.3h-3.9c-2.2 0-4.2-.4-4.5-.9-.3-.5-1.1-14-1.8-30.1s-1.4-28.8-1.6-28.2c-.1.5-3.3 2.1-6.9 3.3-4.3 1.6-6.8 3-7.3 4.4-.4 1.1-1.2 12.6-1.9 25.5-1.4 26.8-1.7 29-3.8 29-1.3 0-1.5-1.8-1-13.8.3-7.5.4-12.9.1-12-.4 1.2-1.6 1.8-3.5 1.8-2.9 0-3-.2-2.7-3.7.2-3 .8-3.9 2.8-4.4l2.5-.7-2.7-.1c-2.6-.1-2.7-.3-3.1-6.9l-.3-6.7-.2 7.2c-.2 5.9-.5 7.2-1.9 7.6-1.7.4-1.7.5 0 .6 1.3.1 1.7 1 1.7 4.1 0 3.4-.3 4-2.2 4.1-2.1.1-2.1.2-.3.6 2.7.7 3.5 2.1 3.5 6.5 0 3.2-.3 3.7-2.7 4.1l-2.8.4 2.7.2c2.1.1 2.8.7 3.1 2.8.4 2.6.4 2.6.6-.5.1-2.5.5-3.2 2.1-3.2 1.7 0 2 .7 2 5 0 3.3-.4 5-1.2 5-1 0-.9.3.1.9 1.5 1 .6 3.1-1.3 3.1-.8 0-1.7 1.5-2 3.4-.5 2.5-1.3 3.6-2.9 3.9-1.8.4-1.8.4.6.6 1.5 0 2.7.5 2.7 1.1 0 .5.7 1 1.6 1 1 0 1.4.7 1.2 2.2-.4 2.7-2.5 3.5-3.1 1.1-.4-1.5-.5-1.4-.6.4-.1 2.9-1.4 3.5-4.5 2.4-2.3-.9-2.5-.8-2.8 2.2-.3 2.8-.7 3.2-3.5 3.5-1.8.2-3.3.7-3.3 1.1 0 .4 1.6.5 3.6.3l3.5-.4-.3 5.8c-.3 5.6-.5 5.9-3 6.2-2.5.3-2.7.1-3.1-4.5-.3-4.4-.4-4.2-.5 1.5-.2 5.5-.4 6.3-1.9 6-1.7-.3-1.9-3.5-2.6-42.3-.4-23-.5-42.5-.3-43.2.3-.7 1-1.3 1.6-1.3.6 0 1.1 4.8 1.2 12.7.1 7.1.3 11.2.5 9.2.4-3.2.8-3.7 3.4-4.1 1.6-.3 3.1-.2 3.4 0 1 1.1.4 7.1-.7 7.5-1 .4-1 .6 0 .6.8.1 1.2 1.8 1.2 5 0 3.9-.4 5.1-1.7 5.4-1.7.4-1.7.5 0 .6 1.2.1 1.7.9 1.7 2.8 0 1.4.3 2.4.6 2 .3-.3.6-6 .5-12.6 0-8.8.3-12.1 1.2-12.1.7 0 .4-.5-.5-1.1-1.4-.8-1.8-2.5-2-7.7l-.2-6.7-.5 7.5c-.6 7.3-.7 7.5-3.3 7.8l-2.8.3v-17.7l4.8-1.6c2.6-.9 7.8-2 11.6-2.3l6.9-.7-.7 3.4c-.8 4.5-1 18.7-.2 19.5.3.4.6-1.6.6-4.3 0-2.7.3-8.6.7-13.2l.6-8.2h-7.4c-8.7 0-24.9 5.1-24.9 7.8 0 3.1-5.1 52.7-5.6 54.1-.2.7-1.2 1.1-2.2.9-1-.3-2.7.1-3.7.8-2.4 1.8-3.5 1.8-3.5-.1 0-1.6 3.7-3.5 5.6-2.8 1.1.4 4.1-27.3 3-28.4-.3-.4-.6.6-.6 2 0 1.7-.5 2.7-1.5 2.7-1.1 0-1.5-1.1-1.5-3.6 0-3.3.2-3.6 2.5-3.2 2.4.5 2.5.3 2.4-4.1-.2-4.4-.2-4.4-.8-1.1-.4 2.2-1.2 3.6-2.3 3.8-1.6.3-1.8-.6-1.8-7.4 0-4.3-.2-7.5-.5-7.2-.3.3-.5 5.7-.6 12.1 0 10-.3 11.6-1.7 12-.9.3 0 .3 2.1 0 5-.5 4.6 1.9-.4 2.8l-3.4.6 3.5.3c3.3.2 3.3.3 1 1-2.4.8-2.4.8-.2.9 2.7.1 3.1 3.7.5 4.4-1.7.4-1.7.5 0 .6 3.9.2 1.3 2-4.5 3-12.6 2.2-15.8 2.4-15.8 1.2 0-.6-.7-1.1-1.5-1.1-2.5 0-1.8-3.9.8-4.4 5.4-1.2 5.9-1.5 2-1.2-2.4.2-4.3 0-4.3-.5s1.2-.9 2.8-.9h2.7l-.3-15c-.3-13.2-.1-15 1.3-15 1.4 0 1.6 1.7 1.3 14.5l-.3 14.5 2.5-.1c1.7-.1 1.9-.3.8-.6-2.1-.5-2.4-2.3-.5-2.3.9 0 .9-.2-.1-.9-.8-.5-1.2-2.2-1-4.2.2-2.9.7-3.4 3.1-3.7 2.5-.3 2.7-.1 2.7 3.2 0 2.4-.5 3.6-1.7 3.9-1.2.3-1 .5.7.6 2.4.1 2.5-.2 2.2-4.3-.4-4-.2-4.5 2-4.9 2.2-.4 2.2-.4.1-.6-2.1-.1-2.2-.7-2.6-7.9l-.3-7.7-.2 8.1-.2 8.2-3 .4-3.1.5.3-9 .3-9 3.7-1.3c2-.7 6.5-1.4 10-1.7 5-.3 6.4-.8 6.6-2.2.4-1.6-.2-1.7-7.7-1.1-6.5.6-18.9 4.2-20.9 6.1-.1.1-1.6 9.9-3.1 21.8-2.3 17.4-3.3 22-4.8 23.6-2 2.1-2 2.1-1.2-2.6 1-6.3.9-11.3-.1-6.3-.7 3.4-.7 3.4-.9-1.3-.1-4.4 1.1-6.3 2.2-3.5.3.7.5-.3.5-2.2 0-1.9-.2-2.7-.5-1.8-.8 3.1-2.3 1.9-2.3-1.7 0-3.7 2.5-5 3.3-1.8.3 1 .5 0 .5-2.2s-.2-3.2-.5-2.3c-.2 1-1.1 1.8-1.9 1.8-1 0-1.4-1.5-1.5-6.3-.1-9.1-.8-5.7-1.1 5.3l-.3 9.5-2.7.3c-2.6.3-2.8.1-2.8-3.2 0-2.8.4-3.5 2.3-3.9l2.2-.4-2.2-.2c-2-.1-2.2-.7-2.6-6.9l-.3-6.7-.2 7.2c-.2 7-.3 7.2-2.9 7.6l-2.8.4 2.8.2c2.4.1 2.7.5 2.7 3.5 0 2.8-.4 3.5-2.2 3.9-2.3.4-2.3.4-.1.6 1.8.1 2.3.8 2.6 3.8l.4 3.8.1-4.3c.2-4 .4-4.2 3.2-4.2 2.9 0 3 .2 3 4.4 0 3.8-.3 4.5-2.2 4.9-2 .4-1.9.4.4.6 2.7.1 2.7.2 2.1 4.8-.7 5.6-.9 6.1-2.5 4.5-1.7-1.7-4.1-1.5-3.4.3.4 1.1-.7 1.6-4.7 2.1-3.5.5-4.5.9-3.2 1.4 1.7.6 1.7.7.2 1.3-1 .4-2 .8-2.4.9-1.3.6-1.7-4.5-1.7-25.7-.1-20.2 0-22 1.7-22.3 1.6-.3 1.7.9 1.7 14.9 0 8.4.3 15 .6 14.6.3-.3.5-7.3.5-15.7l-.2-15.1 3.8-1.6c2.1-.9 6.8-1.8 10.6-2.1 5-.3 6.7-.8 6.7-2 0-2.5-14.1-1.1-22.8 2.3-3.9 1.5-7.2 3.3-7.2 3.9 0 1.3-5.8 38-6.6 41.9-.3 1.5-1.1 2.7-1.7 2.6-2.7-.3-3.7.2-5.1 2.8l-1.5 2.8-.1-3.5-.1-3.5-1.4 2.5c-.8 1.4-1.4 3.3-1.5 4.4 0 1.7-.1 1.7-2.5.2-1.3-.9-2.7-1.6-3-1.6-.8 0-.6 2.8.3 3.2.4.2 1.8 1.5 3.1 3l2.4 2.7-3.5-.5c-3.6-.6-7.8.8-7.8 2.6 0 .6.7 1 1.6 1 .8 0 1.2-.4.9-1-.4-.7.2-.7 1.8-.1 1.4.6 2.7.7 3 .4.3-.3 1.1-.2 1.6.2.7.4-.2 2.3-2.5 5.1-5.2 6.3-3.8 8.5 1.9 2.8 2.4-2.4 4.9-4.4 5.4-4.4s1.7 1.5 2.6 3.4c1.5 3.2 1.5 4.3-.5 16.9l-2.1 13.5 6.7 12.3c3.7 6.7 8.8 15.4 11.4 19.3l4.7 7 .3-3.6c.3-3.4.5-3.6 4.9-4.2 2.5-.3 6.5-.6 8.9-.6h4.4l.3 16.7.3 16.8.2-16.8c.2-14.1.4-16.7 1.7-16.7 1.3 0 1.5 2.7 1.5 18.5v18.4l3.1 3.6c2.2 2.5 3.9 3.5 6 3.5h2.9v-22c0-16.8.3-22.2 1.3-22.5.6-.2 4.9-.6 9.4-.8l8.2-.5.4 8.1.3 8.2.2-8.3c.2-6.5.5-8.2 1.7-8.2.8 0 1.6.1 1.7.2.1.2.4 11 .7 24l.6 23.8-14 .3-14 .3 16.3.2c11.4.1 16.2.5 16.2 1.4 0 .8-4 .9-15.1.5-11.7-.4-14.9-.3-14 .6.8.8 6.2 1.3 15.1 1.5 7.7.2 14 .8 14 1.3s-5.7.9-12.7.9l-12.8.1 6.5 6c45.3 41.9 110.9 69.1 172.8 71.6l15.2.6V858h-6.5c-5.1 0-6.5-.3-6.5-1.5 0-.9.9-1.5 2.4-1.5h2.4l-.5-10.3-.6-10.4 4.4-1 4.4-1.1-4.5-.1-4.6-.1-1.2-8.3c-1.9-12.8-2-12.4 3.8-13.2 5-.7 5-.7 4.9-4.3-.1-2.1-.5-6.2-.9-9.2-.7-4.4-.8-3.7-.3 3.2l.5 8.8h-4.5c-4 0-4.6-.3-5.2-2.7-.9-3.8 2.4-16.2 4.7-17.4 1.1-.6 1.8-2.1 1.7-3.7v-2.7l-1.1 2.5c-.6 1.5-1.2 2-1.5 1.2-.6-1.6 1.6-4.4 2.8-3.6.5.3 1 2.4 1 4.7.2 2.9.3 3.4.6 1.5.2-1.5 1.2-2.9 2.1-3.1 1.6-.4 1.6-.5 0-.6-2.7-.2-3.3-4-.9-6.5s2.9-4.5.7-2.7c-1 .8-1.6.9-2.1.1-.8-1.3.3-3 2.1-3 1.2 0 1.4-3.3 1.4-20.4 0-18.3-.2-20.4-1.6-20.2-.9 0-1.9-.5-2.1-1.2-.3-.6.2-1.2 1.1-1.2.9 0 1.6-.5 1.6-1 0-.6-.5-1-1-1-.7 0-.7-.6-.1-1.9 1.1-2.1-.7-3.5-3.2-2.5-2.8 1-4.6-2.1-5.6-9.6l-1-7.5.5 7.7c.4 7.3.4 7.6-1.6 7.1-1.1-.3-2.3-.9-2.6-1.4-.9-1.5-2.4-1-2.4.7 0 .8-.4 1.2-1 .9-.5-.3-1-.2-1 .3 0 1.1-3.8 2.3-4.4 1.4-.2-.4-.7-4.8-1-9.8l-.7-9.1 5.8-1.1 5.8-1.1-5.8.3c-3.2.2-5.9 0-6.1-.3-.2-.3-.7-4.5-1.1-9.2l-.7-8.6 4.4-.7c2.4-.4 5.3-.9 6.5-1.2 1.8-.5 2.2-.1 2.6 2.3.3 1.9.4 1.4.5-1.7.1-2.5-.2-4-.6-3.4-.9 1.4-12.5 3.4-13.2 2.3-.3-.4-1.6-11.5-2.8-24.6-1.3-13.1-2.6-25.2-2.9-27-.5-3-.3-3.2 3.4-3.8 2.1-.4 4.9-1.1 6.3-1.6 2-.7 1.6-.8-2-.5-2.5.2-5.3.7-6.2 1.1-1.2.5-1.8 0-2.1-1.7-1.4-7.5 0 13.7 2.9 43.4l.7 6.8h-2.9c-1.6 0-4.3.4-6 .9l-3.1.9-.7-6.1c-1.2-11.4-1-12.7 2.2-12.8 1.5-.1 3.8-.5 5.2-1 1.8-.6.8-.7-3.2-.4l-5.8.5-.1-3.2c0-1.8-.9-10.7-1.9-19.8-1-9.1-1.8-13.8-1.6-10.4l.2 6.1-6 1.3c-4 .9-5.3 1.5-3.8 1.8 1.2.2 3.8-.2 5.8-.8 1.9-.7 3.7-1 3.9-.8.1.1.8 6.8 1.4 14.8.6 8 1.4 15.9 1.7 17.7.5 3.4.8 3.2-8.7 4.8l-3.5.7-2.5-26.4c-1.3-14.5-2.5-24.6-2.7-22.6-.3 3.4-.5 3.7-4.5 4.3-5.8 1-8.5 2.8-3.2 2.2 2.2-.3 4.8-.8 5.7-1.2 2-.8 2.4.7 3.1 10l.5 6.1-6.1 1.1c-3.4.7-6.2 1.1-6.4 1-.1-.2-.6-4.6-1.1-9.8-.8-7.7-1-8.4-1.1-3.8l-.1 5.6-3.7.7c-2.1.3-4.8.9-6 1.2-2.2.6-2.3.4-2.4-6.2-.1-3.8-.4-5.7-.6-4.2-.3 2-1 2.8-2.5 2.8-1.1 0-3.8.5-5.9 1.2-3.7 1.1-3.9 1.3-3.9 5.3 0 4.1 0 4.2-4.7 5.2-2.7.6-4.9 1.1-4.9 1-.1-.1-.5-3.6-.9-7.8l-.7-7.6 3.3-.6c1.9-.3 4.2-.8 5.1-1.2 1.2-.5 1.8 0 2.1 1.7.2 1.3.4-.4.4-3.7 0-3.3-.2-4.6-.4-2.9-.4 2.8-.9 3.2-5.1 4.2-2.6.6-4.8.9-4.9.8-.2-.1-.4-5.3-.5-11.5l-.3-11.4 20.5-8.8 20.5-8.8 20.3-2c24.6-2.6 24.9-2.6 25.5-.4.3 1 .5-.1.6-2.5l.1-4.2-4.2.1c-2.4.1-13.5 1.2-24.8 2.4zm-35 53.7c0 .7.7 11.2 1.5 23.3 2 30.7 2.2 28.5-1.7 28.6-1.8 0-4.2.5-5.3 1-1.4.7-.6.8 3.1.5 6-.6 6.4-.1 6.4 9.6 0 6-1.4 7.5-3.9 4.4-.6-.7-2.1-1.1-3.4-.9-1.3.3-2.8-.1-3.4-.9-.6-.7-1.4-7.6-1.8-15.4l-.7-14.1 5.1-.7c2.8-.4 5.1-1 5.1-1.5s-2.1-.4-4.7 0c-2.5.5-4.9.6-5.2.3-.3-.3-.8-4.1-1-8.5l-.3-7.9 3.3-.1c1.9 0 4.3-.5 5.4-1 1.4-.6.5-.8-3.5-.6l-5.5.2-.3-7.6-.3-7.6 4.3-1c6-1.5 6.8-1.5 6.8-.1zm13.8 13.5.3 8-3.8.6c-2.1.3-4.5.8-5.4 1.2-1.9.7-2.9-2.9-2.9-11v-5.2l4.8-1c2.6-.5 5.2-.9 5.7-.8.6.1 1.1 3.8 1.3 8.2zm-25.8-1.3c0 1.2.3 5.1.6 8.5l.7 6.1-2.9.1c-1.6 0-3.8.5-4.9 1-1.4.7-.7.8 2.8.4l4.7-.5v3.9c0 2.1.3 5.9.6 8.5.7 4.5.6 4.6-2.2 4.7-1.6 0-3.8.5-4.9 1-1.4.7-.7.8 2.8.4l4.7-.5v5.4c0 2.9.3 6.7.6 8.3.5 2.8.4 2.9-4.5 3.9l-5 1-.5-4c-.3-2.3-.8-10.2-1.1-17.6-.3-7.4-.8-17.3-1.1-22l-.6-8.6 4.3-1c2.4-.6 4.7-1.2 5.2-1.3.4 0 .7 1 .7 2.3zm40 1c0 1.2.3 5 .6 8.3l.7 6-6.3 1.2c-3.4.7-6.3 1.1-6.5.9-.1-.2-.5-3.9-.8-8.4l-.6-8 5.2-1.1c7.7-1.5 7.7-1.5 7.7 1.1zm-63.7 27.7c-.5.5-2.3.9-4.1 1.1l-3.2.2.2 9.6c.1 5.2.3 7.6.5 5.2.4-3.5.8-4.2 2.6-4.3 2.1-.2 2.1-.2-.1-.6-2-.4-2.3-.9-2-4.6.3-3.9.5-4.2 3.6-4.5 3.1-.3 3.2-.2 3.2 3.7 0 2.6-.5 4.1-1.2 4.1-1 0-1 .2-.1.8.7.5 1.6 2.9 1.9 5.5.6 4.1.4 4.7-1.2 4.8-1.7.1-1.7.2-.1.6 1.3.3 1.7 1.5 1.7 5.3 0 5.5-.4 6-4.3 5.3-2.4-.5-2.7-.9-2.7-4.8 0-3.3.4-4.5 1.8-4.8 1.3-.4 1.1-.5-.5-.6-2.1-.1-2.3.3-2.3 5.6 0 4-.3 5.4-1.1 4.6-1.2-1.2-3.3-45.9-2.2-47.6.5-.7 1.1 2.2 1.4 6.3l.5 7.5.2-7.6.2-7.6 3.3-.9 3.2-1 .8 8.9c.5 4.9.5 9.3 0 9.8zm50.7-12.7c0 2.9.3 6.7.6 8.3.6 2.9.5 3-5.2 4.1-3.1.7-5.8 1.1-6 .9-.1-.1-.5-3.9-.9-8.3l-.7-8.1 4.9-1.1c7.6-1.5 7.3-1.7 7.3 4.2zm14.4 3.8c.3 1.8.7 5.9.9 9.1.4 6.4.9 5.9-7.9 7.1l-4.1.6-.7-5.3c-.3-2.8-.6-6.9-.6-9 0-3.5.2-3.7 3.3-3.8 1.7 0 4.1-.4 5.2-.9 3.1-1.3 3.4-1.2 3.9 2.2zm15 9c.3 2.9.6 7.1.6 9.4v4.1l-5.7.6c-3.2.3-5.9.5-6 .3-.1-.1-.6-4-.9-8.7l-.7-8.5 5.4-1c3-.6 5.7-1.2 6-1.2.3-.1.9 2.2 1.3 5zm-28.4 2c0 1.3.3 5.3.6 8.9l.7 6.5-5.9 1.1c-3.3.6-6 1-6 .9-.1 0-.4-4-.6-8.7l-.6-8.6 5.2-1c2.8-.5 5.4-1.1 5.9-1.1.4-.1.7.8.7 2zm42.4 3c.5 2.5 3.6 36.2 3.3 36.4-.1.1-2.8.4-5.9.7l-5.7.5-.5-4.1c-.3-2.3-.8-6.5-1.1-9.3l-.5-5.1 5.7-1.1 5.8-1.1-5.7.3-5.7.3-.6-6.6c-1.2-12.6-1.5-11.5 3.5-12.2 2.5-.3 5.1-.7 5.7-.7.7-.1 1.5.8 1.7 2zm-27 7.9c.3 3.4.6 7.6.6 9.4 0 3.2 0 3.2-6.2 3.9-3.4.3-6.2.5-6.3.4-.1-.2-.5-4.2-.8-9.1l-.6-8.7 3.2-.1c1.8-.1 4.3-.5 5.7-.9 1.4-.4 2.8-.8 3.1-.9.3-.1.9 2.7 1.3 6zm14.6 4.8c0 1.5.3 5.5.6 8.8l.7 6.1-4.4.7c-2.4.3-5.2.9-6.1 1.1-1.7.5-1.8.3-3.3-13.3l-.6-5.2 4.3-.4c9.3-.8 8.8-.9 8.8 2.2zm-28.6 4.2c.3 1.7.6 4.2.6 5.5 0 2.2-.2 2.3-2 1.2-1.6-1-2.2-1-3.2.5-1.1 1.5-1.7 1.6-4 .5s-2.8-2-2.8-4.9c0-3.9 0-3.9 10.1-5.8.4 0 .9 1.3 1.3 3zm15.8 11.3c.3 5.8.1 6.3-1.4 5.5-1-.5-1.8-1.4-1.8-1.9 0-.6-.8-1-1.8-1-1.1 0-2.7-.9-3.7-2s-2.4-2-3.2-2c-.7 0-1.3-.9-1.3-1.9 0-2 .4-2.1 10.7-2.9 1.9-.2 2.2.3 2.5 6.2zm15.5 14.4c1.6 16.9 1.6 18.2-.1 18.2-.8 0-1.3 1-1.3 2.5 0 1.4.4 2.5.9 2.5s.7.4.3.9c-.3.6-1.7.6-3.6-.1-2.3-.8-3.3-.8-3.8.1-1.5 2.4-3.2-1.7-3.8-8.8l-.6-7.1 3.4-.1c1.9-.1 4.5-.5 5.9-1 1.8-.6.9-.8-3.3-.5-3.7.2-6-.1-6.2-.8-.2-.6-.6-4.7-.9-9.2l-.6-8.1 5.7-.9c3.2-.5 6-.8 6.3-.6.2.2 1 6 1.7 13zm-13.7 8c.6 6.7.8 12.6.5 13.2-.3.6-1.6.5-3.2-.3l-2.7-1.2 3-.7c1.8-.4.6-.6-3.4-.4-5.9.2-6.3.1-6-1.8.2-1.3 1.2-2.2 2.6-2.4 3.6-.5 5.9-7.4 3.4-10.4-1-1.3-.8-1.8 1.3-3.2 1.4-.9 2.5-2.2 2.4-2.9-.2-1.9.2-4.3.6-3.2.2.5.9 6.5 1.5 13.3zm27.4-9.1c1 6.3.7 10-.9 11.3-.9.7-1.3 2-1 2.8.4 1.1-.1 1.3-2.2.9-1.9-.3-3.1.1-4.4 1.6-1.7 2.2-1.7 2.1-2.3-2.3-.3-2.5-.8-7.3-1.1-10.7l-.6-6.2 3.8-.4c8.4-.8 8-1 8.7 3zm-158.3 15c0 2.1.2 2.3.7 1.1.4-1.1 1.2-1.4 1.9-1 1 .6.9 4.3-.4 17.3-.9 9-1.6 16.5-1.7 16.5-.1.1-2.9.5-6.3.9-6.3.7-6.3.7-6.3-1.9 0-2 .5-2.6 2.3-2.7l2.2-.2-2.3-.4c-2.1-.4-2.2-.9-2.1-8.1.2-8.4 1.8-15.3 3.7-16 .8-.2 1.2 1.2 1.2 5.2 0 4.6-.3 5.6-1.7 5.7-1.7.1-1.7.2 0 .6 1.4.4 1.7 1.6 1.7 6.8 0 5.7.2 6.3 1.9 5.8 1.3-.3 2.1.1 2.4 1.4.3 1 .5-.2.4-2.7 0-2.5-.2-3.5-.4-2.3-.2 1.3-1.1 2.3-1.9 2.3-1 0-1.4-1.4-1.4-5.5 0-4.8.3-5.5 1.9-5.5 1.4 0 2.1.8 2.4 2.7.2 1.7.4 1.1.5-1.7 0-2.5-.2-3.9-.5-3.3-.2.7-1.3 1.3-2.4 1.3-1.7 0-1.9-.8-1.9-6 0-6.1 1.2-7.9 2.4-3.8.7 2.2.7 2.2 1.5.3.7-1.6 1-1.3 1.3 2l.5 4 .1-4.8c.1-2.6-.2-4.7-.8-4.7-.5 0-1-1.4-1-3 0-3.8 2-4 2.1-.3zM296 751.6c0 14.8-.2 17.4-1.5 17.4s-1.5-2.6-1.5-17.3c0-9.6.3-17.7.6-18 1.9-1.9 2.4 2 2.4 17.9zm46.6-13.6c.9 0 1.4 1.1 1.4 3.5 0 1.9-.3 3.5-.7 3.5-.5 0-1.8.3-3 .6-2.2.6-2.3.4-2.3-5.7 0-6 .1-6.2 1.6-4.1.8 1.2 2.2 2.2 3 2.2zm-63.2 3.2c-3.9 29.3-3.9 29.3-5.7 29.6-1.7.3-1.8-.2-1.3-5.5.3-4 .3-4.9-.3-2.8-.7 2.6-.9 2.2-1-2.8-.1-5.8 1.4-7.9 2.2-3 .4 2.6.4 2.6.6-.5.1-2.2-.3-3.2-1.4-3.2-2.2 0-2.1-9.8.1-10.7.9-.3 2 0 2.5.8.6 1 .9.5.9-1.7 0-2.9 1.5-5.4 3.2-5.4.5 0 .6 2.4.2 5.2zm-17.4 14c-.1 15.4-.2 17.1-1.5 15.4-2.7-3.5-1.7-32.6 1.1-32.6.2 0 .4 7.8.4 17.2zm5.8-11c-.2.7.3 1.2 1 1 .8-.1 1.2 1.2 1.2 4.3 0 4.5 0 4.5-3.5 4.5H263v-5.1c0-3.1.4-4.8 1-4.4.6.3 1 .1 1-.4 0-.6.7-1.1 1.5-1.1s1.4.6 1.3 1.2zm2.5 18.5c.2 4.3.3 7.9.2 8.1-.1.2-1.9.6-3.9.9-3.4.5-3.6.4-3.6-2.1 0-2.1.5-2.6 2.8-2.7l2.7-.2-2.7-.4c-2.7-.4-2.8-.7-2.8-5.9V755h6.7l.6 7.7zm201.8 21.2c-1.7 1.1-.6 3.2 1.3 2.5.9-.4 1.5.9 2 4.2 1.2 8.7 1.4 8.4-5.9 8.4H463v-6c0-3.9.4-6 1.2-6 .6 0 .9-.3.6-.6-.4-.3.8-1.9 2.5-3.5 2.8-2.7 3.2-2.8 4.6-1.4 1.3 1.3 1.4 1.7.2 2.4zm-62.1 6.8c0 .7.5 1.3 1 1.3 1.5 0 1.2 1.9-1.1 6.7-1.4 3-2.7 4.3-4.1 4.3-1.9 0-2-.4-1.4-4.6.3-2.6.6-5.7.6-6.9 0-1.8.5-2.3 2.5-2.1 1.4 0 2.5.7 2.5 1.3zm35.6-.9c1.4.9 2.6 16.2 1.5 18.1-1 1.5-1.5.8-2.5-3.2-.4-1.8-.2-2.7.6-2.7.7 0 .5-.5-.5-1.1-1-.6-3.4-.8-5.3-.5-1.9.4-3.4.5-3.4.2 0-.2-.3-1.1-.6-1.9-.4-1.1 0-1.4 1.3-1.1 2.4.7 4.7-2 4-4.6-.7-2.7 2.5-4.8 4.9-3.2zm15.8 2.4c1.1 4.4.7 6.8-1.3 6.8-2.6 0-8.8 2.7-9.8 4.2-.8 1.3-2.1-4.2-2.2-9.4-.1-2.5.2-2.7 5.2-3.1 2.8-.2 5.7-.4 6.3-.5.7-.1 1.4.8 1.8 2zm-35.9 1.8c-.3.5 0 1 .7 1 .9 0 .9.3-.2 1s-1.1 1-.2 1c.7 0 1 .5.6 1.2-.4.6-.3.8.3.5 1.1-.7 3.6 1.6 2.8 2.5-.3.3.1 1.1 1 1.8.8.7 1.5 2.8 1.5 4.7 0 3.3-.1 3.4-3.4 2.8-2-.4-3.6-.2-4 .4-.4.6-1.8 1.1-3 1.1-2.2 0-2.4-.5-2.8-7.8-.4-5.1-.2-7.9.6-8.4.8-.6.7-.8-.1-.8-.7 0-1.3-.5-1.3-1 0-.6 1.8-1 4.1-1 2.4 0 3.8.4 3.4 1zm-8.2 8.7c1.6 14.9 1.9 24.3.9 24.3-.5 0-3.2 2-6 4.5-2.7 2.5-5.3 4.5-5.6 4.5-.3 0-.7-1-.7-2.3-.1-1.2-.5 0-1 2.7-.4 2.9-.4 5.6.1 6.5.8 1.4.9 1.4 1-.2 0-1 .4-1.6.9-1.2.5.3 1.2.1 1.6-.5.3-.5 1.4-1 2.3-1 .9 0 3.1-1.7 4.9-3.8 3.7-4.1 3.6-4.4 1.8 4.2-.3 1.7.1 2.8 1.2 3.5 1.4.8 1 1-2.3 1.1-2.3 0-6.2.3-8.7.6-4.1.6-4.6.4-4.5-1.2.1-1.1-.2-3.4-.6-5.2-.5-2.2-.4-3.2.4-3.2.9 0 .9-.4.2-1.3-.5-.6-1.3-4.4-1.7-8.3-.5-5.8-.4-7.3.9-8.3 1.4-1.2 1.6-.8 1.7 4 0 3 .3 4.8.6 4.1.3-.8 2.6-1.2 6.4-1.2 3.7 0 5.9-.4 5.9-1.1 0-.8-1.8-1-6-.5l-6 .7v-5.4c0-7.7 3.5-14.1 7.8-14.5 3.5-.4 4.5-2.2 1.2-2.2-2.4 0-2.5-.8-.3-3.2 2.5-2.8 3-2.3 3.6 3.9zm-41.9-2.1c.9.3 1.7 1.8 1.7 3.3.2 2.3.2 2.4.6.3.3-1.3 1.2-2.2 2.3-2.2 4.6 0 8.6 13.2 9.5 31.2l.7 12.8H380l-.2-7.3-.2-7.2-.3 7.2-.4 7.3h-7.7l-.6-8.3c-.3-4.5-.8-14.8-1.1-23L369 800h2.4c1.3 0 3.1.3 4 .6zm101 1.1c.2 1 .7 4.9 1.1 8.6l.7 6.9-2.9-.6c-1.5-.3-4.5-.8-6.5-1.2-4-.7-4.4-1.2-4.3-6.4 0-3.2.3-3.5 3.5-4 3.6-.5 5.4-2.9 2.3-3.1-1.5 0-1.5-.2.2-.9 3.2-1.4 5.3-1.1 5.9.7zM355.2 813l.2 11.5.6-11.5c.4-9.3.8-11.5 2-11.5 2.2 0 2.8 6 2.9 26.7.1 17.2 0 17.8-1.9 17.8-1.8 0-2-.7-2.2-7.8l-.2-7.7-.3 7.7-.4 7.8H333v-21.8c0-12 .3-22.2.7-22.5.3-.4 5.3-.6 11-.4l10.3.2.2 11.5zm69.8 4.2c0 .5 1.2.8 2.6.8 1.4 0 3.2.7 4 1.4 1.2 1.3 1 1.7-1.8 2.9-1.8.8-4.8 2-6.5 2.5l-3.3 1.1-.1-4.5c-.1-2.4-.2-5-.3-5.7-.4-2.4.5-2.7 2.9-1 1.4 1 2.5 2.1 2.5 2.5zm54.1 9.9.5 4.4.5-3.5c.3-1.9.5.6.5 5.6l-.1 9.1-4.3-3.6c-2.4-2-5.8-4.8-7.5-6.3-3.4-2.8-3-5.1.4-3 2.7 1.7 3.6-.8 1.4-4.2l-1.6-2.5 3.8-.4c5.6-.5 5.8-.4 6.4 4.4zm-17 10c1.4 1 2.9 1.6 3.3 1.2.3-.3.6.1.6 1s.6 1.7 1.4 1.7c1.8 0 2.9 2.7 1.3 3.4-.7.2.7.5 3 .5 2.3.1 4.4.5 4.8 1 .3.6 1.4.8 2.5.6 1.1-.2 2 .2 2 .8 0 .7.3 2.2.6 3.4l.6 2.3h-29.4l.7-2.8c.3-1.6.2-4.7-.4-7-.5-2.3-.7-4.2-.5-4.2.2 0 1.3 1.5 2.4 3.2 1.1 1.8 2 2.9 2 2.4s1.1.3 2.5 1.8c2.5 2.7 4.5 3.4 4.5 1.5 0-.5.5-.7 1.1-.4 1.6 1-2.7-6.9-4.6-8.5-.9-.7-2.1-2.2-2.7-3.3-1.1-2.1-.6-2 4.3 1.4zM639 648.5v73.4l7.8-3.3 7.7-3.3.3-70.1.2-70.2h-16v73.5zm-148.9-29.3c-.1 2.1 3.7 16.6 5 18.8.5.9.9-2.1.9-7.8 0-9.1 0-9.2-2.4-9.2-1.5 0-2.6-.7-2.9-1.8-.4-1.6-.5-1.6-.6 0zM622 758.3c-1.4.7-3 2.8-3.7 4.7-1.3 3.8-1.7 9-.7 9 .9 0 25.4-14.1 25.4-14.6 0-1-18.7-.3-21 .9zm15 16-19.5 11.3-.3 4.2c-.2 2.3 0 4.2.5 4.2.4 0 4.4-2.1 8.8-4.6 4.4-2.5 13.3-7.5 19.8-11.1l11.7-6.4v-4.5c0-2.4-.3-4.4-.7-4.4-.5 0-9.6 5.1-20.3 11.3zm-464 10.8c-5.8 3.3-10.9 6.4-11.3 6.9-.7.6 1.3 6 2.8 7.8.2.2 4.4-2.2 9.4-5.4 5.1-3.1 9.3-5.5 9.5-5.3.2.2-2.5 5.2-6.1 11.1-6.8 11-7.2 12.8-4 17.2 1.3 1.8 1.9 1.8 13.5.4 6.7-.7 12.2-1.1 12.2-.8 0 .3-3.8 3.2-8.5 6.5-4.6 3.3-8.4 6.7-8.4 7.6-.1.9.8 2.7 1.8 4l1.9 2.4 9.8-7.6c5.4-4.1 10.2-8.2 10.7-9.1.8-1.1.3-2.8-1.7-6.3l-2.8-4.7-10.9.7c-6 .4-10.9.3-10.9 0 0-.4 2.3-4.7 5-9.5 2.8-4.8 5-9.7 5-10.8 0-2.8-4.1-11.2-5.5-11.2-.5 0-5.7 2.7-11.5 6.1zm623.4 0c-.8 1.7-1.2 3.5-.7 3.9 1.3 1.1 22.2 14 22.8 14 .6 0 3.5-5.6 3.5-6.8 0-1-21.5-14.2-23.1-14.2-.4 0-1.6 1.4-2.5 3.1zm-156.9 10.5C615.1 809.9 617 808.4 617 813c0 2.2.3 4 .6 4s9.5-5 20.5-11.1l19.9-11.2v-4.8c0-2.7-.1-4.9-.2-4.8-.2 0-8.4 4.7-18.3 10.5zm144.1 13.7-2.7 4.5 7.1 14.3c3.9 7.9 7.5 14.5 7.9 14.7.4.1 1.6-1.2 2.6-3.1 1.6-3.1 1.6-3.5.1-6.5-1.7-3.2-1.6-3.3 2.5-10.2 3.9-6.7 4.3-7 7.8-7 3.3 0 3.9-.4 5.5-3.6.9-2 1.6-3.8 1.4-3.9-.2-.2-5.5-.8-11.8-1.4-6.3-.7-12.9-1.4-14.7-1.7-2.9-.5-3.3-.2-5.7 3.9zm13.4 5.3c1.7.3 3 .7 3 1 0 .2-1.3 2.5-2.9 5l-2.8 4.6-3.2-5.5c-1.7-3-3.1-5.8-3.1-6.2 0-.3 1.4-.4 3-.1 1.7.3 4.4.9 6 1.2zm-158.5 4.5c-10.4 6.1-19.6 11.6-20.4 12.4-1.6 1.6-.5 7.8 1.3 7.3.6-.2 9.6-5 19.9-10.8l18.7-10.5v-4.7c0-2.7-.1-4.8-.2-4.8-.2.1-8.8 5-19.3 11.1zm-436 17c-5.5 4.4-10.4 8.4-10.9 8.9-.9.9 2.3 7 3.7 7 1.6 0 20.7-17 20.7-18.4 0-.8-.8-2.3-1.7-3.5l-1.8-2.2-10 8.2zm442.3.7-11.7 6.7 10.2.3c9.9.3 10.3.2 12.5-2.3 1.6-1.9 2.2-3.9 2.2-7.1 0-2.4-.3-4.4-.7-4.4-.5 0-6.1 3.1-12.5 6.8zm122.8-.7c-2.8 2.2-11.6 14-11.6 15.6 0 .5 4.6 5.1 10.1 10.3l10.2 9.4 2.3-2.9 2.4-3-4.1-4.1c-4-4.1-4-4.1-2.1-6.4 1.6-2 2.6-2.3 8.5-2.1 6.6.2 6.7.1 8.7-3.1 1.1-1.8 2-3.7 2-4.1 0-.5-3.4-.7-7.5-.5l-7.6.3.6-2.7c.6-2.7-.8-6.6-2.9-8-2.1-1.4-6.3-.8-9 1.3zm5.4 8c1.3 2.3-.1 6.9-2.7 9-1.1 1-2 .7-4.4-1.7l-2.9-2.9 2.9-3.3c3.5-3.7 5.6-4.1 7.1-1.1zm-561.5 7.1c-5.5 4.9-10.1 9.2-10.2 9.6-.2.4.8 2 2.1 3.7l2.4 2.9 8.2-7.9c6.3-6.1 8.1-7.4 7.6-5.5-1.6 6.1-5.6 24-5.6 25.4 0 1.9 4.8 7.6 6.5 7.6.7 0 5.5-4.5 10.6-10.1l9.2-10-2.5-2.6-2.6-2.6-6.3 6.8c-3.5 3.7-6.5 6.3-6.7 5.7-.1-.5.6-5.1 1.8-10.3 1.1-5.1 2-10.4 2-11.7 0-2.7-3.4-8.7-5.3-9.5-.7-.2-5.7 3.6-11.2 8.5zM637 853v7h2.9c4.3 0 5.4-2 4.6-8.4-.7-5.6-.8-5.6-4.1-5.6H637v7zm110.6 8.2c-.9 1.2-1.6 2.7-1.6 3.2 0 .8 17.7 19.8 19.1 20.4.4.2 1.7-1.1 2.9-2.8l2.3-3.2-9.9-9.9c-5.4-5.4-10.2-9.9-10.6-9.9-.4 0-1.4 1-2.2 2.2zm-8.4 10.1-2.2 2.3 4.4 12c2.4 6.5 4.3 12 4.1 12.2-.1.2-5-2.1-10.8-5l-10.6-5.2-2.5 2.3c-1.4 1.3-2.3 2.8-2 3.3.8 1.2 24.3 12.8 25.9 12.8.7 0 2.7-1.6 4.3-3.5l3.1-3.4-5.1-15.1c-2.7-8.2-5.3-15-5.7-15-.4 0-1.7 1-2.9 2.3zm-501.4 12.3-9.7 10.8 2 2.8c1.1 1.5 2.4 2.8 2.8 2.8.7 0 15.1-16.2 17.9-20.1 1-1.5.9-2.2-1.1-4.4l-2.3-2.7-9.6 10.8zM254 890c-2.6 2.6-2.6 8.9.1 14.1 2.3 4.7 2.2 8.2-.4 8.7-2.8.6-6.4-2.3-8.3-6.8-1.9-4.4-2.5-4.7-4.4-2.5-1.6 2-.5 5 3.8 9.7 6.6 7.3 13.4 8.9 17.1 4.2 2.8-3.5 2.7-5.3-1-13.6-2.4-5.5-2.8-7.2-1.8-8.4.6-.8 1.7-1.4 2.4-1.4 1.3 0 4.8 3.8 7.1 7.6 1.1 1.8 1.2 1.7 2.4-.8s1-3.1-1.4-6.3c-4.8-6.3-11.8-8.3-15.6-4.5zm453.3 12.9-3.1 2.8 1.8 8.9c1 4.9 2.3 12.2 3 16.1.6 4 1.5 7.3 1.8 7.3.4-.1 1.8-.9 3-2 2-1.7 2.3-2.6 1.7-5.8-.6-3.7-.4-4 5-8.7l5.7-4.8 3 1.8c3 1.7 3 1.7 6-1.2l3-3-13.2-7.2c-7.2-3.9-13.5-7.1-13.8-7.1-.4 0-2.2 1.3-3.9 2.9zm9 7.7c2.3 1.5 4.4 2.8 4.6 3 .7.6-5.1 6.4-6.4 6.4-1 0-3.5-8-3.5-11.1 0-1.4.6-1.1 5.3 1.7zM274 902.5c-1.1 1.3-.7 2.2 2.5 5.5l3.8 3.9-6.8 10.3-6.8 10.2 2.3 1.8c1.2 1 2.7 1.8 3.4 1.8.6 0 4-4.5 7.4-10l6.4-10 3.8 3c4.5 3.5 4.6 3.6 5.9 1.2.9-1.6-.3-2.9-7.6-8.8-14-11.3-12.9-10.6-14.3-8.9zm413.6 16.4c-1.7 1.8-1.5 2.3 3.3 10.1 2.8 4.5 5.1 8.3 5.1 8.5 0 .3-4.5-1.8-10-4.4-5.5-2.7-10.8-4.7-11.8-4.4-1 .2-3.1 1.5-4.7 2.7l-2.8 2.3 6.7 12.6c3.7 7 7.2 12.7 7.9 12.7.7 0 2.1-.7 3.2-1.6 2-1.5 1.9-1.7-3.3-11.5-2.9-5.4-5.1-9.9-4.9-9.9.2 0 4.8 2.3 10.1 5.1 5.4 2.8 10.9 5.1 12.2 5.1 2.5 0 7.4-3.7 7.4-5.5 0-1.8-14.3-23.7-15.5-23.7-.6 0-2 .9-2.9 1.9zm-394.9 14.4c-3.7 6.2-6.7 12-6.7 12.8 0 1.9 16.7 13.2 18.6 12.5 2.8-1.1 1.3-3.4-5-7.6l-6.5-4.1 2.1-3.5c1.1-1.9 2.4-3.4 3-3.4.5 0 2.9 1.4 5.4 3.1 2.4 1.6 4.9 2.7 5.4 2.4 2.2-1.4.8-4.1-3.5-6.8-5.7-3.6-5.7-3.8-3.6-7l1.7-2.7 3.5 2.6c1.9 1.4 4.6 3.2 6.1 4 2.5 1.3 2.8 1.2 3.8-.5.9-1.7 0-2.6-7.1-7.5-4.4-3.1-8.6-5.6-9.3-5.6-.6 0-4.2 5.1-7.9 11.3zM316 950c-6.2 12.6-6.4 13-4.5 14.5 3.2 2.3 4.4 1.8 6.7-3 1.2-2.5 2.7-4.5 3.3-4.5 2.5 0 4.5 3.9 5.1 9.9.5 4.7 1.2 6.6 2.8 7.6 4.1 3 4.9 2 4.4-5-.3-3.6-1.1-7.2-1.8-8-1.1-1.3-.8-1.5 1.6-1.5 3.5 0 4.7-.8 6.3-3.7 2.9-5.5.4-9.8-8.8-15.3-3.7-2.2-7.2-4-7.7-4s-3.9 5.8-7.4 13zm17 .4c0 4-2.5 5.2-6.6 3.3L323 952l2-4 2.1-4.1 2.9 2.1c1.9 1.3 3 3 3 4.4zm12.2 13.9c-2.8 6.8-5.2 12.9-5.4 13.7-.2.7.9 2 2.5 2.9 3.4 2 3.1 2.5 9.2-13.6 4.5-12 4.7-12.7 2.9-14-1-.7-2.3-1.3-3-1.3-.6 0-3.4 5.5-6.2 12.3zm271.1-4.9c-3.4 1.6-3.5 1.6-5 18l-.8 8-6.5-8.2c-3.6-4.5-7.4-8.4-8.6-8.7-2.6-.8-9.4 1.9-9.4 3.7 0 .7 1.4 7.3 3.2 14.5 3.4 13.9 4.1 15 8.2 12 1.9-1.4 1.4-4-4.1-23.2-.3-1.1 2.6 2.1 6.5 7.1 8.9 11.4 9.6 12 13 10.8 3.1-1.1 3.7-3.5 4.8-18.9l.6-10 4.1 11.8c3.7 10.5 4.3 11.6 6.2 11.1 4.6-1.4 4.6-2.3-.4-15.9-5.2-14.1-5.8-14.7-11.8-12.1zm36.2.2c-7 3.7-7.6 4.3-6.5 6.5 1.1 1.9 1.3 1.9 7.1-1.3 3.7-2.1 5.8-3.8 5.7-4.8-.4-2.1-2.8-2.2-6.3-.4zM365.4 962c-4.9 2-9.4 10.3-9.4 17.5 0 6.3 5.9 12.1 14.8 14.5 8.7 2.3 15.2-1.6 17.8-10.7 1.9-6.7 1.3-11.1-2.3-15.4-4.8-5.7-14.6-8.5-20.9-5.9zm14.4 7.2c5.2 5 .4 19.8-6.5 19.8-3.1 0-7.9-2.5-8.7-4.5-1.9-5.1 1.5-15.8 5.6-17.5 3-1.2 6.8-.3 9.6 2.2zm188.8 5.8c-3.7 1-7.2 2.2-7.8 2.8-.9.9 3.4 27.8 4.7 29 .6.6 18.3-3.4 20.3-4.7 1.6-1 .5-4.1-1.5-4.1-.8 0-4 .7-7 1.6-3 .9-5.7 1.4-6 1.1-.2-.3-.7-2.3-1-4.4l-.5-4 5.3-1.4c4.4-1.2 5.5-1.8 5.7-3.8.4-2.3.2-2.4-3.5-1.7-9.8 1.9-9.3 2-9.4-.3-.1-1.1-.2-2.6-.3-3.2-.1-.7 2.7-2 6.2-2.9 7.2-2 7.5-2.2 6.6-4.4-.7-2-2.8-1.9-11.8.4zm-159.1 1.2c-2.4 10.5-5.5 25-5.5 26.2 0 1 2.2 1.9 6.9 3 13.6 3.1 19.8 1.6 23.2-5.7 3.5-7.8 1.7-16-4.3-19.7-3.2-2-9.7-4.2-16.5-5.5-2.8-.6-3.3-.3-3.8 1.7zm13.7 6.5c3.8 1.9 5.1 4.8 4.5 10.2-.7 6.5-4.4 9.5-10.5 8.7-2.4-.3-4.7-.8-5.1-1-.4-.3.2-5 1.3-10.5 2-9.9 2.1-10 4.6-9.4 1.4.3 3.7 1.2 5.2 2zm18.4 10.5c-2.2 16.5-2.1 17.6.7 18.3 4.1.9 18.2 2.2 19 1.8.4-.2.7-1.2.7-2.2 0-1.9-3.5-3.1-9-3.1-5.7 0-7-1.8-5.4-7.7.5-1.8 1.2-2.1 3.5-1.8 1.6.3 4.2.7 5.8 1 2.3.3 3 0 3.4-1.6.7-2.5-1.9-3.9-7.1-3.9-4.7 0-5-.2-4.4-4.1l.5-3.1 7.1.4c6.5.3 7.1.1 7.1-1.7 0-2.2-2.5-2.9-13.6-4l-6.6-.7-1.7 12.4zm96.3-11.7c-.4.3 2.2 25.1 3.1 29.2.1.6 5.6.2 12.1-.8 6.4-1.1 6.9-1.4 6.9-3.7 0-2.3-.2-2.4-4.7-1.8-2.7.4-5.5.9-6.4 1.2-1.3.3-1.8-.6-2.3-4.3-2.7-20.7-2.6-20.3-5.5-20.3-1.5 0-3 .2-3.2.5zm-17.7 1.5c-4 .5-7.6 1.1-8 1.4-.7.8-.4 16.6.5 24.5l.6 5.4 10.1-.7c10.4-.7 12.3-1.3 11.2-4.1-.5-1.4-1.6-1.6-8.1-1l-7.5.7v-4.6c0-4.4.1-4.6 2.9-4.6 1.6 0 4.3-.3 6-.6 2.5-.5 3.1-1.1 2.9-2.8-.3-1.9-1-2.1-6.3-2.1h-6l-.3-3.3c-.3-3-.1-3.2 3-3.2 1.8 0 5-.3 7.1-.6 3.1-.6 3.7-1.1 3.7-3 0-2.7.3-2.6-11.8-1.4zm-38.4 1.6c-.5.4-.8 7.4-.8 15.6v14.8h8.5c12.8 0 17.5-2.6 17.5-9.9 0-2.1-.9-3.6-3.1-5.4-2.7-2.1-2.8-2.5-1.5-3.6 2.5-2.1 2-7.8-.8-9.6-2.6-1.7-18.6-3.3-19.8-1.9zm15.5 6.3c2.1 2.1-.6 4.6-5.2 4.9l-4.1.3v-7.4l4.1.6c2.3.3 4.6 1 5.2 1.6zm-.5 11.7c4.7 3.3 2.1 7.4-4.8 7.4h-4.5l.3-4.5c.4-4.3.5-4.5 3.6-4.5 1.7 0 4.2.7 5.4 1.6z"/><path d="M214.3 618.2c.5 67.7 1.2 75.9 9.4 107 2.3 8.7 2.8 9.6 4.4 8.8 1-.6 3.5-1 5.6-1l3.8-.1-3.4-3c-2.3-2.2-3-3.4-2.3-4.1.8-.8 1.8-.6 3.6.6 2.5 1.6 2.6 1.6 2.6-.7 0-1.3.7-3.2 1.5-4.3 1.4-1.8 1.4-1.8 1.5.9v2.9l2.9-2.9c2.7-2.7 3.1-4.3 7-27.5 2.2-13.6 4.1-25.8 4.1-27.2 0-2.3.6-2.6 9.3-4.5 5-1.2 30.8-7 57.2-13l48-10.8v-9.9c0-5.4-.2-15.7-.5-22.9l-.4-13 25.4-10.8 25.5-10.8L446 569c14.6-1.6 28.1-3.2 30.1-3.5 4.6-.6 5.3.8 6.9 14.1.6 5.4 2 12.4 3 15.4 1.1 3 2.4 8.6 2.9 12.5 2 13.3 2.1 13.5 4 13.5 1.6 0 1.9-1.4 2.4-14.3.4-7.8.7-21.7.7-31V559H213.8l.5 59.2zm20.5 126.7c-2 2.2-4 3.6-4.4 3.3-.5-.4-.4 0 .2.8.6.8 2.6 5.3 4.5 10 1.8 4.7 3.5 7.8 3.6 7 1.8-9 4-23.7 3.6-24.3-1-1.7-4-.4-7.5 3.2z" fill="#0FF"/><path d="M639 572v3h16v-6h-16v3z" fill="#00F"/></svg>